<svg width="16" height="16" viewBox="0 0 16 16" fill="none" xmlns="http://www.w3.org/2000/svg">
<path fill-rule="evenodd" clip-rule="evenodd" d="M7.99934 0.266602C3.7295 0.266602 0.266724 3.72892 0.266724 8.00019C0.266724 11.4164 2.48235 14.3152 5.55537 15.3383C5.94228 15.409 6.08328 15.1702 6.08328 14.9652C6.08328 14.7814 6.07664 14.2953 6.07284 13.6501C3.92178 14.1172 3.46792 12.6133 3.46792 12.6133C3.11614 11.7198 2.60911 11.482 2.60911 11.482C1.90697 11.0025 2.66228 11.012 2.66228 11.012C3.43849 11.0666 3.84677 11.8091 3.84677 11.8091C4.53657 12.9907 5.65696 12.6493 6.09753 12.4514C6.16779 11.9519 6.36765 11.6111 6.58841 11.4179C4.87126 11.2223 3.06581 10.5591 3.06581 7.59571C3.06581 6.75114 3.36728 6.06134 3.86196 5.52061C3.7822 5.32501 3.51682 4.53882 3.93792 3.47397C3.93792 3.47397 4.58689 3.26603 6.06429 4.26632C6.68098 4.09493 7.34278 4.00948 8.00029 4.00616C8.65734 4.00948 9.31866 4.09493 9.9363 4.26632C11.4128 3.26603 12.0608 3.47397 12.0608 3.47397C12.4828 4.53882 12.2174 5.32501 12.1382 5.52061C12.6338 6.06134 12.9329 6.75114 12.9329 7.59571C12.9329 10.5667 11.1246 11.2204 9.40221 11.4117C9.67946 11.6505 9.92681 12.1224 9.92681 12.844C9.92681 13.8775 9.91731 14.7116 9.91731 14.9652C9.91731 15.1721 10.0569 15.4128 10.449 15.3373C13.5197 14.3124 15.7334 11.416 15.7334 8.00019C15.7334 3.72892 12.2706 0.266602 7.99934 0.266602" fill="white"/>
</svg>
