<svg width="480" height="276" viewBox="0 0 480 276" fill="none" xmlns="http://www.w3.org/2000/svg">
<g clip-path="url(#clip0_2445_1638)">
<mask id="path-1-inside-1_2445_1638" fill="white">
<path d="M0 12C0 5.37258 5.37258 0 12 0H480V276H0V12Z"/>
</mask>
<path d="M0 12C0 5.37258 5.37258 0 12 0H480V276H0V12Z" fill="white"/>
<mask id="path-3-inside-2_2445_1638" fill="white">
<path d="M0 0H480V22H0V0Z"/>
</mask>
<path d="M0 0H480V22H0V0Z" fill="white"/>
<path d="M480 22V21H0V22V23H480V22Z" fill="#161616" fill-opacity="0.08" mask="url(#path-3-inside-2_2445_1638)"/>
<circle cx="14" cy="12" r="4" fill="#F07171"/>
<circle cx="26" cy="12" r="4" fill="#F8D185"/>
<circle cx="38" cy="12" r="4" fill="#87F3AC"/>
<path d="M184.608 97.2H186.316V107H184.608V102.604H180.548V107H178.84V97.2H180.548V100.896H184.608V97.2ZM190.971 107.182C190.327 107.182 189.739 107.016 189.207 106.685C188.679 106.354 188.257 105.91 187.94 105.355C187.627 104.795 187.471 104.177 187.471 103.5C187.471 102.987 187.562 102.508 187.744 102.065C187.926 101.617 188.175 101.225 188.493 100.889C188.815 100.548 189.188 100.282 189.613 100.091C190.037 99.8997 190.49 99.804 190.971 99.804C191.615 99.804 192.2 99.9697 192.728 100.301C193.26 100.632 193.682 101.078 193.995 101.638C194.312 102.198 194.471 102.819 194.471 103.5C194.471 104.009 194.38 104.485 194.198 104.928C194.016 105.371 193.764 105.763 193.442 106.104C193.124 106.44 192.753 106.704 192.329 106.895C191.909 107.086 191.456 107.182 190.971 107.182ZM190.971 105.474C191.311 105.474 191.617 105.383 191.888 105.201C192.158 105.019 192.371 104.779 192.525 104.48C192.683 104.181 192.763 103.855 192.763 103.5C192.763 103.136 192.681 102.805 192.518 102.506C192.359 102.203 192.142 101.962 191.867 101.785C191.596 101.603 191.297 101.512 190.971 101.512C190.635 101.512 190.331 101.603 190.061 101.785C189.79 101.967 189.575 102.21 189.417 102.513C189.258 102.816 189.179 103.145 189.179 103.5C189.179 103.869 189.26 104.202 189.424 104.501C189.587 104.8 189.804 105.038 190.075 105.215C190.35 105.388 190.649 105.474 190.971 105.474ZM198.845 107H197.151L194.813 100H196.486L198.005 104.529L199.517 100H201.204L202.716 104.529L204.235 100H205.908L203.57 107H201.876L200.357 102.45L198.845 107ZM214.871 104.893L216.411 105.726C216.089 106.165 215.686 106.517 215.2 106.783C214.715 107.049 214.185 107.182 213.611 107.182C212.967 107.182 212.379 107.016 211.847 106.685C211.32 106.354 210.898 105.91 210.58 105.355C210.268 104.795 210.111 104.177 210.111 103.5C210.111 102.987 210.202 102.508 210.384 102.065C210.566 101.617 210.816 101.225 211.133 100.889C211.455 100.548 211.829 100.282 212.253 100.091C212.678 99.8997 213.131 99.804 213.611 99.804C214.185 99.804 214.715 99.937 215.2 100.203C215.686 100.469 216.089 100.826 216.411 101.274L214.871 102.1C214.708 101.913 214.514 101.769 214.29 101.666C214.071 101.563 213.845 101.512 213.611 101.512C213.275 101.512 212.972 101.605 212.701 101.792C212.431 101.974 212.216 102.217 212.057 102.52C211.899 102.819 211.819 103.145 211.819 103.5C211.819 103.85 211.899 104.177 212.057 104.48C212.216 104.779 212.431 105.019 212.701 105.201C212.972 105.383 213.275 105.474 213.611 105.474C213.854 105.474 214.085 105.423 214.304 105.32C214.524 105.213 214.713 105.07 214.871 104.893ZM222.727 100H224.435V107H222.727L222.65 106.132C222.459 106.445 222.205 106.699 221.887 106.895C221.575 107.086 221.204 107.182 220.774 107.182C220.256 107.182 219.771 107.084 219.318 106.888C218.866 106.692 218.467 106.421 218.121 106.076C217.781 105.731 217.512 105.332 217.316 104.879C217.125 104.426 217.029 103.941 217.029 103.423C217.029 102.924 217.12 102.455 217.302 102.016C217.489 101.577 217.748 101.192 218.079 100.861C218.411 100.53 218.793 100.271 219.227 100.084C219.661 99.8973 220.128 99.804 220.627 99.804C221.089 99.804 221.502 99.9067 221.866 100.112C222.235 100.317 222.548 100.579 222.804 100.896L222.727 100ZM220.732 105.537C221.096 105.537 221.418 105.446 221.698 105.264C221.978 105.082 222.198 104.837 222.356 104.529C222.515 104.216 222.594 103.873 222.594 103.5C222.594 103.122 222.515 102.779 222.356 102.471C222.198 102.158 221.976 101.911 221.691 101.729C221.411 101.547 221.092 101.456 220.732 101.456C220.373 101.456 220.044 101.549 219.745 101.736C219.451 101.918 219.216 102.163 219.038 102.471C218.866 102.779 218.779 103.122 218.779 103.5C218.779 103.878 218.868 104.221 219.045 104.529C219.223 104.837 219.458 105.082 219.752 105.264C220.051 105.446 220.378 105.537 220.732 105.537ZM232.242 102.576V107H230.534V103.024C230.534 102.749 230.467 102.499 230.331 102.275C230.196 102.046 230.014 101.867 229.785 101.736C229.561 101.601 229.312 101.533 229.036 101.533C228.761 101.533 228.509 101.601 228.28 101.736C228.056 101.867 227.877 102.046 227.741 102.275C227.611 102.499 227.545 102.749 227.545 103.024V107H225.837L225.83 100H227.538L227.545 100.623C227.783 100.371 228.068 100.173 228.399 100.028C228.731 99.8787 229.088 99.804 229.47 99.804C229.979 99.804 230.443 99.93 230.863 100.182C231.283 100.429 231.617 100.763 231.864 101.183C232.116 101.598 232.242 102.063 232.242 102.576ZM237.21 107V97.2H238.918V107H237.21ZM250.59 102.576V107H248.882V103.024C248.882 102.749 248.814 102.499 248.679 102.275C248.544 102.046 248.362 101.867 248.133 101.736C247.909 101.601 247.659 101.533 247.384 101.533C247.109 101.533 246.857 101.601 246.628 101.736C246.404 101.867 246.224 102.046 246.089 102.275C245.958 102.499 245.893 102.749 245.893 103.024V107H244.185L244.178 96.5H245.886L245.893 100.623C246.131 100.371 246.416 100.173 246.747 100.028C247.078 99.8787 247.435 99.804 247.818 99.804C248.327 99.804 248.791 99.93 249.211 100.182C249.631 100.429 249.965 100.763 250.212 101.183C250.464 101.598 250.59 102.063 250.59 102.576ZM254.928 107.182C254.284 107.182 253.696 107.016 253.164 106.685C252.636 106.354 252.214 105.908 251.897 105.348C251.584 104.788 251.428 104.17 251.428 103.493C251.428 102.984 251.519 102.508 251.701 102.065C251.883 101.617 252.132 101.225 252.45 100.889C252.772 100.548 253.145 100.282 253.57 100.091C253.994 99.8997 254.447 99.804 254.928 99.804C255.474 99.804 255.973 99.9207 256.426 100.154C256.883 100.383 257.27 100.698 257.588 101.099C257.905 101.5 258.136 101.958 258.281 102.471C258.425 102.984 258.458 103.521 258.379 104.081H253.262C253.327 104.342 253.434 104.578 253.584 104.788C253.733 104.993 253.922 105.159 254.151 105.285C254.379 105.406 254.638 105.469 254.928 105.474C255.226 105.479 255.497 105.409 255.74 105.264C255.987 105.115 256.192 104.914 256.356 104.662L258.099 105.068C257.814 105.689 257.389 106.197 256.825 106.594C256.26 106.986 255.628 107.182 254.928 107.182ZM253.206 102.8H256.65C256.598 102.52 256.489 102.268 256.321 102.044C256.157 101.815 255.954 101.633 255.712 101.498C255.469 101.363 255.208 101.295 254.928 101.295C254.648 101.295 254.389 101.363 254.151 101.498C253.913 101.629 253.71 101.808 253.542 102.037C253.378 102.261 253.266 102.515 253.206 102.8ZM259.408 107V96.5H261.116V107H259.408ZM264.507 110.5H262.799V100H264.507V100.889C264.736 100.572 265.016 100.315 265.347 100.119C265.683 99.9183 266.075 99.818 266.523 99.818C267.036 99.818 267.515 99.9137 267.958 100.105C268.401 100.296 268.791 100.562 269.127 100.903C269.468 101.239 269.731 101.629 269.918 102.072C270.109 102.515 270.205 102.991 270.205 103.5C270.205 104.009 270.109 104.487 269.918 104.935C269.731 105.383 269.468 105.777 269.127 106.118C268.791 106.454 268.401 106.718 267.958 106.909C267.515 107.1 267.036 107.196 266.523 107.196C266.075 107.196 265.683 107.098 265.347 106.902C265.016 106.701 264.736 106.442 264.507 106.125V110.5ZM266.502 101.463C266.147 101.463 265.83 101.556 265.55 101.743C265.27 101.925 265.051 102.17 264.892 102.478C264.733 102.786 264.654 103.127 264.654 103.5C264.654 103.873 264.733 104.216 264.892 104.529C265.051 104.837 265.27 105.084 265.55 105.271C265.83 105.453 266.147 105.544 266.502 105.544C266.861 105.544 267.19 105.453 267.489 105.271C267.788 105.089 268.026 104.844 268.203 104.536C268.38 104.223 268.469 103.878 268.469 103.5C268.469 103.127 268.38 102.786 268.203 102.478C268.026 102.17 267.788 101.925 267.489 101.743C267.195 101.556 266.866 101.463 266.502 101.463ZM279.632 100H281.445L277.616 110.5H275.803L277.07 107L274.55 100H276.419L277.924 104.662L279.632 100ZM285.225 107.182C284.581 107.182 283.993 107.016 283.461 106.685C282.933 106.354 282.511 105.91 282.194 105.355C281.881 104.795 281.725 104.177 281.725 103.5C281.725 102.987 281.816 102.508 281.998 102.065C282.18 101.617 282.429 101.225 282.747 100.889C283.069 100.548 283.442 100.282 283.867 100.091C284.291 99.8997 284.744 99.804 285.225 99.804C285.869 99.804 286.454 99.9697 286.982 100.301C287.514 100.632 287.936 101.078 288.249 101.638C288.566 102.198 288.725 102.819 288.725 103.5C288.725 104.009 288.634 104.485 288.452 104.928C288.27 105.371 288.018 105.763 287.696 106.104C287.378 106.44 287.007 106.704 286.583 106.895C286.163 107.086 285.71 107.182 285.225 107.182ZM285.225 105.474C285.565 105.474 285.871 105.383 286.142 105.201C286.412 105.019 286.625 104.779 286.779 104.48C286.937 104.181 287.017 103.855 287.017 103.5C287.017 103.136 286.935 102.805 286.772 102.506C286.613 102.203 286.396 101.962 286.121 101.785C285.85 101.603 285.551 101.512 285.225 101.512C284.889 101.512 284.585 101.603 284.315 101.785C284.044 101.967 283.829 102.21 283.671 102.513C283.512 102.816 283.433 103.145 283.433 103.5C283.433 103.869 283.514 104.202 283.678 104.501C283.841 104.8 284.058 105.038 284.329 105.215C284.604 105.388 284.903 105.474 285.225 105.474ZM289.384 104.41V100H291.092V103.962C291.092 104.237 291.16 104.489 291.295 104.718C291.431 104.942 291.61 105.122 291.834 105.257C292.063 105.388 292.313 105.453 292.583 105.453C292.863 105.453 293.115 105.388 293.339 105.257C293.563 105.122 293.743 104.942 293.878 104.718C294.014 104.489 294.081 104.237 294.081 103.962V100H295.789L295.796 107H294.088L294.081 106.363C293.839 106.615 293.552 106.816 293.22 106.965C292.889 107.11 292.534 107.182 292.156 107.182C291.648 107.182 291.183 107.058 290.763 106.811C290.343 106.559 290.007 106.225 289.755 105.81C289.508 105.39 289.384 104.923 289.384 104.41ZM304.173 107H302.479L300.141 100H301.814L303.333 104.529L304.845 100H306.532L308.044 104.529L309.563 100H311.236L308.898 107H307.204L305.685 102.45L304.173 107ZM312.278 100H313.986V107H312.278V100ZM313.146 99.097C312.894 99.097 312.681 99.0153 312.509 98.852C312.336 98.684 312.25 98.474 312.25 98.222C312.25 97.9747 312.336 97.767 312.509 97.599C312.681 97.431 312.891 97.347 313.139 97.347C313.386 97.347 313.594 97.431 313.762 97.599C313.934 97.767 314.021 97.9747 314.021 98.222C314.021 98.474 313.937 98.684 313.769 98.852C313.601 99.0153 313.393 99.097 313.146 99.097ZM319.42 101.708H318.062V107H316.354V101.708H315.318V100H316.354V97.802H318.062V100H319.42V101.708ZM327.098 102.576V107H325.39V103.024C325.39 102.749 325.322 102.499 325.187 102.275C325.051 102.046 324.869 101.867 324.641 101.736C324.417 101.601 324.167 101.533 323.892 101.533C323.616 101.533 323.364 101.601 323.136 101.736C322.912 101.867 322.732 102.046 322.597 102.275C322.466 102.499 322.401 102.749 322.401 103.024V107H320.693L320.686 96.5H322.394L322.401 100.623C322.639 100.371 322.923 100.173 323.255 100.028C323.586 99.8787 323.943 99.804 324.326 99.804C324.834 99.804 325.299 99.93 325.719 100.182C326.139 100.429 326.472 100.763 326.72 101.183C326.972 101.598 327.098 102.063 327.098 102.576ZM336.658 100H338.471L334.642 110.5H332.829L334.096 107L331.576 100H333.445L334.95 104.662L336.658 100ZM342.25 107.182C341.606 107.182 341.018 107.016 340.486 106.685C339.959 106.354 339.536 105.91 339.219 105.355C338.906 104.795 338.75 104.177 338.75 103.5C338.75 102.987 338.841 102.508 339.023 102.065C339.205 101.617 339.455 101.225 339.772 100.889C340.094 100.548 340.467 100.282 340.892 100.091C341.317 99.8997 341.769 99.804 342.25 99.804C342.894 99.804 343.48 99.9697 344.007 100.301C344.539 100.632 344.961 101.078 345.274 101.638C345.591 102.198 345.75 102.819 345.75 103.5C345.75 104.009 345.659 104.485 345.477 104.928C345.295 105.371 345.043 105.763 344.721 106.104C344.404 106.44 344.033 106.704 343.608 106.895C343.188 107.086 342.735 107.182 342.25 107.182ZM342.25 105.474C342.591 105.474 342.896 105.383 343.167 105.201C343.438 105.019 343.65 104.779 343.804 104.48C343.963 104.181 344.042 103.855 344.042 103.5C344.042 103.136 343.96 102.805 343.797 102.506C343.638 102.203 343.421 101.962 343.146 101.785C342.875 101.603 342.577 101.512 342.25 101.512C341.914 101.512 341.611 101.603 341.34 101.785C341.069 101.967 340.855 102.21 340.696 102.513C340.537 102.816 340.458 103.145 340.458 103.5C340.458 103.869 340.54 104.202 340.703 104.501C340.866 104.8 341.083 105.038 341.354 105.215C341.629 105.388 341.928 105.474 342.25 105.474ZM346.41 104.41V100H348.118V103.962C348.118 104.237 348.185 104.489 348.321 104.718C348.456 104.942 348.636 105.122 348.86 105.257C349.088 105.388 349.338 105.453 349.609 105.453C349.889 105.453 350.141 105.388 350.365 105.257C350.589 105.122 350.768 104.942 350.904 104.718C351.039 104.489 351.107 104.237 351.107 103.962V100H352.815L352.822 107H351.114L351.107 106.363C350.864 106.615 350.577 106.816 350.246 106.965C349.914 107.11 349.56 107.182 349.182 107.182C348.673 107.182 348.209 107.058 347.789 106.811C347.369 106.559 347.033 106.225 346.781 105.81C346.533 105.39 346.41 104.923 346.41 104.41ZM354.23 107L354.223 100H355.931L355.938 100.623C356.176 100.371 356.46 100.173 356.792 100.028C357.123 99.8787 357.48 99.804 357.863 99.804C358.119 99.804 358.376 99.8413 358.633 99.916L357.961 101.638C357.783 101.568 357.606 101.533 357.429 101.533C357.153 101.533 356.901 101.601 356.673 101.736C356.449 101.867 356.269 102.046 356.134 102.275C356.003 102.499 355.938 102.749 355.938 103.024V107H354.23ZM185.252 119.576V124H183.544V120.024C183.544 119.749 183.476 119.499 183.341 119.275C183.206 119.046 183.024 118.867 182.795 118.736C182.571 118.601 182.321 118.533 182.046 118.533C181.771 118.533 181.519 118.601 181.29 118.736C181.066 118.867 180.886 119.046 180.751 119.275C180.62 119.499 180.555 119.749 180.555 120.024V124H178.847L178.84 117H180.548L180.555 117.623C180.793 117.371 181.078 117.173 181.409 117.028C181.74 116.879 182.097 116.804 182.48 116.804C182.989 116.804 183.453 116.93 183.873 117.182C184.293 117.429 184.627 117.763 184.874 118.183C185.126 118.598 185.252 119.063 185.252 119.576ZM189.59 124.182C188.946 124.182 188.358 124.016 187.826 123.685C187.299 123.354 186.876 122.908 186.559 122.348C186.246 121.788 186.09 121.17 186.09 120.493C186.09 119.984 186.181 119.508 186.363 119.065C186.545 118.617 186.795 118.225 187.112 117.889C187.434 117.548 187.807 117.282 188.232 117.091C188.657 116.9 189.109 116.804 189.59 116.804C190.136 116.804 190.635 116.921 191.088 117.154C191.545 117.383 191.933 117.698 192.25 118.099C192.567 118.5 192.798 118.958 192.943 119.471C193.088 119.984 193.12 120.521 193.041 121.081H187.924C187.989 121.342 188.097 121.578 188.246 121.788C188.395 121.993 188.584 122.159 188.813 122.285C189.042 122.406 189.301 122.469 189.59 122.474C189.889 122.479 190.159 122.409 190.402 122.264C190.649 122.115 190.855 121.914 191.018 121.662L192.761 122.068C192.476 122.689 192.052 123.197 191.487 123.594C190.922 123.986 190.29 124.182 189.59 124.182ZM187.868 119.8H191.312C191.261 119.52 191.151 119.268 190.983 119.044C190.82 118.815 190.617 118.633 190.374 118.498C190.131 118.363 189.87 118.295 189.59 118.295C189.31 118.295 189.051 118.363 188.813 118.498C188.575 118.629 188.372 118.808 188.204 119.037C188.041 119.261 187.929 119.515 187.868 119.8ZM193.326 124L195.888 120.486L193.347 116.993H195.454L196.938 119.03L198.429 116.993H200.536L197.995 120.486L200.557 124H198.45L196.938 121.928L195.433 124H193.326ZM205.711 118.708H204.353V124H202.645V118.708H201.609V117H202.645V114.802H204.353V117H205.711V118.708ZM210.34 124V114.2H213.84C214.372 114.2 214.853 114.333 215.282 114.599C215.716 114.865 216.059 115.222 216.311 115.67C216.563 116.118 216.689 116.61 216.689 117.147C216.689 117.698 216.558 118.197 216.297 118.645C216.04 119.088 215.695 119.443 215.261 119.709C214.827 119.97 214.353 120.101 213.84 120.101H212.048V124H210.34ZM212.048 118.393H213.658C213.901 118.393 214.122 118.332 214.323 118.211C214.524 118.09 214.682 117.926 214.799 117.721C214.92 117.516 214.981 117.287 214.981 117.035C214.981 116.778 214.92 116.547 214.799 116.342C214.682 116.137 214.524 115.973 214.323 115.852C214.122 115.731 213.901 115.67 213.658 115.67H212.048V118.393ZM217.969 124V114.2H221.728C222.26 114.2 222.741 114.333 223.17 114.599C223.599 114.865 223.94 115.222 224.192 115.67C224.444 116.113 224.57 116.606 224.57 117.147C224.57 117.59 224.488 117.999 224.325 118.372C224.166 118.741 223.942 119.06 223.653 119.331C223.368 119.602 223.039 119.807 222.666 119.947L225.011 124H223.044L220.776 120.101H219.677V124H217.969ZM219.677 118.393H221.532C221.775 118.393 221.996 118.332 222.197 118.211C222.398 118.09 222.559 117.926 222.68 117.721C222.801 117.516 222.862 117.287 222.862 117.035C222.862 116.778 222.801 116.547 222.68 116.342C222.559 116.137 222.398 115.973 222.197 115.852C221.996 115.731 221.775 115.67 221.532 115.67H219.677V118.393ZM226.35 124V114.2H229.598C230.274 114.2 230.907 114.328 231.495 114.585C232.087 114.837 232.608 115.189 233.056 115.642C233.508 116.09 233.861 116.61 234.113 117.203C234.369 117.791 234.498 118.423 234.498 119.1C234.498 119.777 234.369 120.411 234.113 121.004C233.861 121.592 233.508 122.112 233.056 122.565C232.608 123.013 232.087 123.365 231.495 123.622C230.907 123.874 230.274 124 229.598 124H226.35ZM228.058 122.292H229.598C230.032 122.292 230.44 122.21 230.823 122.047C231.21 121.879 231.551 121.65 231.845 121.361C232.139 121.067 232.37 120.729 232.538 120.346C232.706 119.959 232.79 119.543 232.79 119.1C232.79 118.657 232.706 118.244 232.538 117.861C232.37 117.478 232.139 117.14 231.845 116.846C231.551 116.552 231.212 116.323 230.83 116.16C230.447 115.992 230.036 115.908 229.598 115.908H228.058V122.292ZM237.898 121.004C237.898 120.472 238.031 119.984 238.297 119.541C238.563 119.098 238.927 118.75 239.389 118.498C239.618 118.377 239.797 118.199 239.928 117.966C240.059 117.728 240.124 117.467 240.124 117.182C240.124 116.911 240.056 116.666 239.921 116.447C239.79 116.223 239.613 116.048 239.389 115.922C239.165 115.791 238.92 115.726 238.654 115.726C238.383 115.726 238.136 115.791 237.912 115.922C237.688 116.048 237.511 116.223 237.38 116.447C237.249 116.666 237.184 116.911 237.184 117.182H235.476C235.476 116.599 235.618 116.069 235.903 115.593C236.188 115.112 236.57 114.73 237.051 114.445C237.536 114.16 238.071 114.018 238.654 114.018C239.237 114.018 239.769 114.16 240.25 114.445C240.731 114.73 241.113 115.112 241.398 115.593C241.687 116.069 241.832 116.599 241.832 117.182C241.832 117.779 241.685 118.33 241.391 118.834C241.102 119.338 240.703 119.728 240.194 120.003C240.012 120.101 239.867 120.239 239.76 120.416C239.657 120.593 239.606 120.789 239.606 121.004H237.898ZM238.815 124.182C238.568 124.182 238.358 124.096 238.185 123.923C238.017 123.75 237.933 123.54 237.933 123.293C237.933 123.05 238.017 122.845 238.185 122.677C238.358 122.509 238.568 122.425 238.815 122.425C239.058 122.425 239.263 122.509 239.431 122.677C239.599 122.845 239.683 123.05 239.683 123.293C239.683 123.54 239.599 123.75 239.431 123.923C239.263 124.096 239.058 124.182 238.815 124.182Z" fill="#161616"/>
<rect x="178.1" y="136.1" width="211.8" height="49.8" rx="3.9" fill="#F2F2F3"/>
<rect x="178.1" y="136.1" width="211.8" height="49.8" rx="3.9" stroke="#D8D8D9" stroke-width="0.2"/>
<path d="M184.132 148.091C183.87 148.091 183.617 148.05 183.372 147.968C183.129 147.887 182.917 147.77 182.735 147.618C182.553 147.467 182.425 147.286 182.35 147.076L182.809 146.904C182.86 147.049 182.953 147.174 183.089 147.279C183.226 147.382 183.386 147.461 183.568 147.517C183.752 147.573 183.94 147.601 184.132 147.601C184.356 147.601 184.564 147.564 184.758 147.489C184.952 147.414 185.108 147.31 185.227 147.177C185.346 147.042 185.406 146.883 185.406 146.701C185.406 146.517 185.344 146.365 185.22 146.246C185.096 146.127 184.937 146.034 184.741 145.966C184.547 145.896 184.344 145.843 184.132 145.805C183.798 145.747 183.498 145.668 183.232 145.567C182.968 145.467 182.76 145.326 182.606 145.144C182.452 144.96 182.375 144.717 182.375 144.416C182.375 144.134 182.456 143.889 182.62 143.681C182.783 143.473 182.998 143.312 183.264 143.198C183.532 143.084 183.821 143.026 184.132 143.026C184.386 143.026 184.634 143.066 184.877 143.145C185.12 143.225 185.333 143.34 185.517 143.492C185.704 143.644 185.838 143.829 185.92 144.048L185.455 144.216C185.403 144.069 185.309 143.945 185.171 143.842C185.036 143.737 184.877 143.658 184.695 143.604C184.513 143.548 184.325 143.52 184.132 143.52C183.91 143.518 183.702 143.555 183.509 143.632C183.317 143.707 183.162 143.812 183.043 143.947C182.924 144.08 182.865 144.236 182.865 144.416C182.865 144.626 182.919 144.788 183.029 144.902C183.141 145.014 183.293 145.098 183.484 145.154C183.675 145.21 183.891 145.261 184.132 145.305C184.444 145.359 184.735 145.443 185.003 145.557C185.271 145.669 185.487 145.819 185.651 146.008C185.814 146.195 185.896 146.426 185.896 146.701C185.896 146.981 185.814 147.226 185.651 147.436C185.487 147.644 185.271 147.805 185.003 147.919C184.737 148.034 184.447 148.091 184.132 148.091ZM188.185 148.091C187.863 148.091 187.569 148.008 187.303 147.842C187.039 147.677 186.828 147.455 186.669 147.177C186.513 146.897 186.435 146.588 186.435 146.25C186.435 145.993 186.48 145.754 186.571 145.532C186.662 145.308 186.787 145.112 186.946 144.944C187.107 144.774 187.293 144.641 187.506 144.545C187.718 144.45 187.944 144.402 188.185 144.402C188.444 144.402 188.682 144.453 188.899 144.556C189.118 144.659 189.306 144.802 189.462 144.986C189.621 145.171 189.74 145.387 189.819 145.634C189.901 145.881 189.935 146.148 189.921 146.435H186.953C186.981 146.657 187.051 146.855 187.163 147.03C187.277 147.205 187.422 147.344 187.597 147.447C187.774 147.547 187.97 147.599 188.185 147.601C188.418 147.601 188.628 147.54 188.815 147.419C189.004 147.298 189.155 147.131 189.27 146.918L189.767 147.034C189.627 147.344 189.415 147.599 189.133 147.797C188.851 147.993 188.535 148.091 188.185 148.091ZM186.939 146.04H189.427C189.411 145.823 189.344 145.625 189.228 145.445C189.113 145.263 188.965 145.118 188.783 145.011C188.601 144.901 188.402 144.846 188.185 144.846C187.968 144.846 187.769 144.9 187.59 145.007C187.41 145.112 187.263 145.256 187.149 145.438C187.034 145.618 186.964 145.818 186.939 146.04ZM193.573 145.833V148H193.083V145.931C193.083 145.74 193.036 145.566 192.943 145.41C192.849 145.254 192.724 145.129 192.568 145.035C192.412 144.942 192.238 144.895 192.047 144.895C191.858 144.895 191.684 144.942 191.525 145.035C191.369 145.129 191.244 145.254 191.151 145.41C191.057 145.566 191.011 145.74 191.011 145.931V148H190.521V144.5H191.011V144.983C191.134 144.806 191.295 144.664 191.494 144.559C191.692 144.454 191.908 144.402 192.141 144.402C192.405 144.402 192.645 144.466 192.862 144.594C193.079 144.723 193.252 144.895 193.38 145.112C193.508 145.329 193.573 145.57 193.573 145.833ZM197.086 142.75H197.576V148H197.086V147.345C196.964 147.569 196.797 147.75 196.585 147.888C196.375 148.023 196.125 148.091 195.836 148.091C195.582 148.091 195.344 148.043 195.122 147.947C194.9 147.852 194.704 147.72 194.534 147.552C194.366 147.382 194.234 147.186 194.139 146.964C194.043 146.742 193.995 146.504 193.995 146.25C193.995 145.996 194.043 145.758 194.139 145.536C194.234 145.312 194.366 145.116 194.534 144.948C194.704 144.778 194.9 144.645 195.122 144.549C195.344 144.453 195.582 144.405 195.836 144.405C196.125 144.405 196.375 144.474 196.585 144.612C196.797 144.747 196.964 144.926 197.086 145.147V142.75ZM195.84 147.615C196.089 147.615 196.304 147.554 196.484 147.433C196.663 147.309 196.801 147.144 196.897 146.936C196.995 146.728 197.044 146.5 197.044 146.25C197.044 145.993 196.995 145.762 196.897 145.557C196.799 145.349 196.66 145.185 196.48 145.063C196.3 144.942 196.087 144.881 195.84 144.881C195.592 144.881 195.367 144.943 195.164 145.067C194.961 145.188 194.799 145.353 194.678 145.56C194.556 145.768 194.496 145.998 194.496 146.25C194.496 146.504 194.557 146.735 194.681 146.943C194.805 147.148 194.968 147.312 195.171 147.433C195.376 147.554 195.599 147.615 195.84 147.615ZM202.975 144.5H203.465V148H202.975L202.957 147.349C202.843 147.571 202.683 147.75 202.478 147.888C202.272 148.023 202.027 148.091 201.743 148.091C201.486 148.091 201.246 148.043 201.022 147.947C200.798 147.849 200.601 147.715 200.43 147.545C200.26 147.375 200.127 147.177 200.031 146.953C199.936 146.729 199.888 146.489 199.888 146.233C199.888 145.98 199.934 145.744 200.028 145.522C200.123 145.3 200.254 145.105 200.42 144.937C200.588 144.769 200.781 144.639 201.001 144.545C201.222 144.45 201.459 144.402 201.711 144.402C202.003 144.402 202.257 144.472 202.474 144.612C202.691 144.75 202.864 144.93 202.992 145.154L202.975 144.5ZM201.732 147.615C201.982 147.615 202.197 147.554 202.376 147.433C202.556 147.309 202.694 147.144 202.789 146.936C202.887 146.728 202.936 146.5 202.936 146.25C202.936 145.993 202.887 145.762 202.789 145.557C202.691 145.349 202.552 145.185 202.373 145.063C202.193 144.942 201.98 144.881 201.732 144.881C201.485 144.881 201.259 144.943 201.053 145.067C200.85 145.188 200.688 145.353 200.567 145.56C200.448 145.768 200.388 145.998 200.388 146.25C200.388 146.504 200.45 146.735 200.574 146.943C200.697 147.148 200.861 147.312 201.064 147.433C201.269 147.554 201.492 147.615 201.732 147.615ZM205.847 148V144.5H206.337V144.983C206.463 144.806 206.624 144.664 206.82 144.559C207.016 144.454 207.23 144.402 207.464 144.402C207.727 144.402 207.969 144.467 208.188 144.598C208.408 144.726 208.579 144.898 208.703 145.112C208.826 144.898 208.997 144.726 209.214 144.598C209.431 144.467 209.671 144.402 209.935 144.402C210.198 144.402 210.439 144.466 210.656 144.594C210.873 144.723 211.045 144.895 211.174 145.112C211.302 145.329 211.366 145.57 211.366 145.833V148H210.876V145.942C210.876 145.755 210.831 145.583 210.74 145.424C210.649 145.265 210.526 145.138 210.372 145.042C210.221 144.944 210.051 144.895 209.865 144.895C209.678 144.895 209.508 144.941 209.354 145.032C209.202 145.121 209.081 145.244 208.99 145.403C208.899 145.559 208.853 145.739 208.853 145.942V148H208.363V145.942C208.363 145.739 208.318 145.559 208.227 145.403C208.136 145.244 208.013 145.121 207.859 145.032C207.705 144.941 207.535 144.895 207.348 144.895C207.164 144.895 206.995 144.944 206.841 145.042C206.687 145.138 206.564 145.265 206.473 145.424C206.382 145.583 206.337 145.755 206.337 145.942V148H205.847ZM213.539 148.091C213.217 148.091 212.923 148.008 212.657 147.842C212.393 147.677 212.182 147.455 212.024 147.177C211.867 146.897 211.789 146.588 211.789 146.25C211.789 145.993 211.835 145.754 211.926 145.532C212.017 145.308 212.141 145.112 212.3 144.944C212.461 144.774 212.648 144.641 212.86 144.545C213.072 144.45 213.299 144.402 213.539 144.402C213.798 144.402 214.036 144.453 214.253 144.556C214.472 144.659 214.66 144.802 214.817 144.986C214.975 145.171 215.094 145.387 215.174 145.634C215.255 145.881 215.289 146.148 215.275 146.435H212.307C212.335 146.657 212.405 146.855 212.517 147.03C212.631 147.205 212.776 147.344 212.951 147.447C213.128 147.547 213.324 147.599 213.539 147.601C213.772 147.601 213.982 147.54 214.169 147.419C214.358 147.298 214.51 147.131 214.624 146.918L215.121 147.034C214.981 147.344 214.77 147.599 214.488 147.797C214.205 147.993 213.889 148.091 213.539 148.091ZM212.293 146.04H214.782C214.765 145.823 214.699 145.625 214.582 145.445C214.468 145.263 214.32 145.118 214.138 145.011C213.956 144.901 213.756 144.846 213.539 144.846C213.322 144.846 213.124 144.9 212.944 145.007C212.764 145.112 212.617 145.256 212.503 145.438C212.389 145.618 212.319 145.818 212.293 146.04ZM216.963 148.067C216.772 148.062 216.585 148.027 216.403 147.961C216.221 147.896 216.063 147.807 215.927 147.695C215.792 147.583 215.695 147.456 215.637 147.314L216.06 147.132C216.098 147.223 216.167 147.307 216.267 147.384C216.37 147.459 216.486 147.519 216.617 147.566C216.748 147.61 216.877 147.632 217.005 147.632C217.148 147.632 217.281 147.609 217.404 147.562C217.528 147.516 217.628 147.449 217.705 147.363C217.785 147.274 217.824 147.17 217.824 147.051C217.824 146.923 217.782 146.823 217.698 146.75C217.614 146.676 217.508 146.617 217.38 146.575C217.252 146.531 217.12 146.489 216.984 146.449C216.737 146.382 216.519 146.307 216.33 146.225C216.141 146.144 215.993 146.04 215.885 145.914C215.78 145.786 215.728 145.621 215.728 145.42C215.728 145.208 215.787 145.025 215.906 144.871C216.028 144.715 216.185 144.594 216.379 144.51C216.575 144.424 216.784 144.381 217.005 144.381C217.29 144.381 217.549 144.443 217.782 144.566C218.018 144.69 218.188 144.855 218.293 145.06L217.898 145.294C217.856 145.199 217.789 145.116 217.698 145.046C217.607 144.976 217.504 144.921 217.387 144.881C217.273 144.842 217.156 144.821 217.037 144.818C216.888 144.816 216.749 144.838 216.62 144.885C216.492 144.929 216.388 144.996 216.309 145.084C216.232 145.173 216.193 145.282 216.193 145.41C216.193 145.538 216.232 145.636 216.309 145.704C216.386 145.769 216.49 145.823 216.62 145.865C216.753 145.905 216.903 145.951 217.068 146.005C217.281 146.073 217.48 146.15 217.667 146.236C217.854 146.322 218.004 146.43 218.118 146.558C218.233 146.686 218.289 146.848 218.286 147.044C218.286 147.254 218.223 147.438 218.097 147.594C217.971 147.75 217.808 147.87 217.607 147.954C217.407 148.036 217.192 148.074 216.963 148.067ZM219.971 148.067C219.78 148.062 219.593 148.027 219.411 147.961C219.229 147.896 219.071 147.807 218.935 147.695C218.8 147.583 218.703 147.456 218.645 147.314L219.068 147.132C219.106 147.223 219.174 147.307 219.275 147.384C219.377 147.459 219.494 147.519 219.625 147.566C219.755 147.61 219.885 147.632 220.013 147.632C220.156 147.632 220.289 147.609 220.412 147.562C220.536 147.516 220.636 147.449 220.713 147.363C220.793 147.274 220.832 147.17 220.832 147.051C220.832 146.923 220.79 146.823 220.706 146.75C220.622 146.676 220.516 146.617 220.388 146.575C220.259 146.531 220.128 146.489 219.992 146.449C219.745 146.382 219.527 146.307 219.338 146.225C219.149 146.144 219.001 146.04 218.893 145.914C218.788 145.786 218.736 145.621 218.736 145.42C218.736 145.208 218.795 145.025 218.914 144.871C219.036 144.715 219.193 144.594 219.387 144.51C219.583 144.424 219.792 144.381 220.013 144.381C220.298 144.381 220.557 144.443 220.79 144.566C221.026 144.69 221.196 144.855 221.301 145.06L220.906 145.294C220.864 145.199 220.797 145.116 220.706 145.046C220.615 144.976 220.511 144.921 220.395 144.881C220.28 144.842 220.164 144.821 220.045 144.818C219.895 144.816 219.757 144.838 219.628 144.885C219.5 144.929 219.396 144.996 219.317 145.084C219.24 145.173 219.201 145.282 219.201 145.41C219.201 145.538 219.24 145.636 219.317 145.704C219.394 145.769 219.498 145.823 219.628 145.865C219.761 145.905 219.911 145.951 220.076 146.005C220.289 146.073 220.488 146.15 220.675 146.236C220.861 146.322 221.012 146.43 221.126 146.558C221.241 146.686 221.297 146.848 221.294 147.044C221.294 147.254 221.231 147.438 221.105 147.594C220.979 147.75 220.816 147.87 220.615 147.954C220.415 148.036 220.2 148.074 219.971 148.067ZM224.747 144.5H225.237V148H224.747L224.73 147.349C224.615 147.571 224.456 147.75 224.25 147.888C224.045 148.023 223.8 148.091 223.515 148.091C223.259 148.091 223.018 148.043 222.794 147.947C222.57 147.849 222.373 147.715 222.203 147.545C222.032 147.375 221.899 147.177 221.804 146.953C221.708 146.729 221.66 146.489 221.66 146.233C221.66 145.98 221.707 145.744 221.8 145.522C221.896 145.3 222.027 145.105 222.192 144.937C222.36 144.769 222.554 144.639 222.773 144.545C222.995 144.45 223.232 144.402 223.484 144.402C223.775 144.402 224.03 144.472 224.247 144.612C224.464 144.75 224.636 144.93 224.765 145.154L224.747 144.5ZM223.505 147.615C223.754 147.615 223.969 147.554 224.149 147.433C224.328 147.309 224.466 147.144 224.562 146.936C224.66 146.728 224.709 146.5 224.709 146.25C224.709 145.993 224.66 145.762 224.562 145.557C224.464 145.349 224.325 145.185 224.145 145.063C223.966 144.942 223.752 144.881 223.505 144.881C223.257 144.881 223.031 144.943 222.826 145.067C222.623 145.188 222.461 145.353 222.339 145.56C222.22 145.768 222.161 145.998 222.161 146.25C222.161 146.504 222.223 146.735 222.346 146.943C222.47 147.148 222.633 147.312 222.836 147.433C223.042 147.554 223.264 147.615 223.505 147.615ZM228.652 144.5H229.142V148.13C229.142 148.354 229.093 148.564 228.995 148.76C228.899 148.956 228.768 149.127 228.603 149.274C228.439 149.423 228.253 149.54 228.043 149.624C227.833 149.708 227.615 149.75 227.388 149.75C227.146 149.75 226.911 149.694 226.685 149.582C226.458 149.472 226.261 149.325 226.093 149.141C225.928 148.957 225.81 148.753 225.74 148.529L226.191 148.322C226.236 148.497 226.318 148.655 226.44 148.795C226.563 148.937 226.708 149.049 226.874 149.131C227.042 149.215 227.213 149.257 227.388 149.257C227.549 149.257 227.704 149.226 227.854 149.166C228.005 149.107 228.141 149.027 228.26 148.924C228.381 148.821 228.477 148.701 228.547 148.564C228.617 148.428 228.652 148.284 228.652 148.13V147.356C228.53 147.575 228.366 147.753 228.158 147.888C227.953 148.023 227.714 148.091 227.441 148.091C227.196 148.091 226.965 148.043 226.748 147.947C226.533 147.852 226.344 147.72 226.181 147.552C226.017 147.382 225.889 147.186 225.796 146.964C225.705 146.742 225.659 146.504 225.659 146.25C225.659 145.996 225.705 145.758 225.796 145.536C225.889 145.312 226.017 145.116 226.181 144.948C226.344 144.778 226.533 144.645 226.748 144.549C226.965 144.453 227.196 144.405 227.441 144.405C227.714 144.405 227.953 144.473 228.158 144.608C228.366 144.741 228.53 144.919 228.652 145.14V144.5ZM227.444 147.615C227.687 147.615 227.896 147.552 228.071 147.426C228.248 147.3 228.385 147.133 228.48 146.925C228.576 146.718 228.624 146.493 228.624 146.25C228.624 146 228.575 145.773 228.477 145.567C228.381 145.36 228.245 145.194 228.067 145.07C227.89 144.944 227.682 144.881 227.444 144.881C227.206 144.881 226.989 144.943 226.793 145.067C226.6 145.188 226.446 145.353 226.331 145.56C226.217 145.768 226.16 145.998 226.16 146.25C226.16 146.502 226.218 146.732 226.335 146.939C226.451 147.145 226.607 147.309 226.8 147.433C226.996 147.554 227.211 147.615 227.444 147.615ZM231.49 148.091C231.168 148.091 230.874 148.008 230.608 147.842C230.345 147.677 230.133 147.455 229.975 147.177C229.818 146.897 229.74 146.588 229.74 146.25C229.74 145.993 229.786 145.754 229.877 145.532C229.968 145.308 230.093 145.112 230.251 144.944C230.412 144.774 230.599 144.641 230.811 144.545C231.024 144.45 231.25 144.402 231.49 144.402C231.749 144.402 231.987 144.453 232.204 144.556C232.424 144.659 232.611 144.802 232.768 144.986C232.926 145.171 233.045 145.387 233.125 145.634C233.206 145.881 233.24 146.148 233.226 146.435H230.258C230.286 146.657 230.356 146.855 230.468 147.03C230.583 147.205 230.727 147.344 230.902 147.447C231.08 147.547 231.276 147.599 231.49 147.601C231.724 147.601 231.934 147.54 232.12 147.419C232.309 147.298 232.461 147.131 232.575 146.918L233.072 147.034C232.932 147.344 232.721 147.599 232.439 147.797C232.156 147.993 231.84 148.091 231.49 148.091ZM230.244 146.04H232.733C232.716 145.823 232.65 145.625 232.533 145.445C232.419 145.263 232.271 145.118 232.089 145.011C231.907 144.901 231.707 144.846 231.49 144.846C231.273 144.846 231.075 144.9 230.895 145.007C230.716 145.112 230.569 145.256 230.454 145.438C230.34 145.618 230.27 145.818 230.244 146.04ZM233.929 148.091C233.852 148.091 233.786 148.063 233.733 148.007C233.679 147.953 233.652 147.887 233.652 147.807C233.652 147.733 233.679 147.669 233.733 147.615C233.786 147.559 233.852 147.531 233.929 147.531C234.008 147.531 234.074 147.559 234.128 147.615C234.184 147.669 234.212 147.733 234.212 147.807C234.212 147.887 234.184 147.953 234.128 148.007C234.074 148.063 234.008 148.091 233.929 148.091ZM235.186 148.091C235.109 148.091 235.044 148.063 234.99 148.007C234.937 147.953 234.91 147.887 234.91 147.807C234.91 147.733 234.937 147.669 234.99 147.615C235.044 147.559 235.109 147.531 235.186 147.531C235.266 147.531 235.332 147.559 235.386 147.615C235.442 147.669 235.47 147.733 235.47 147.807C235.47 147.887 235.442 147.953 235.386 148.007C235.332 148.063 235.266 148.091 235.186 148.091ZM236.444 148.091C236.367 148.091 236.302 148.063 236.248 148.007C236.195 147.953 236.168 147.887 236.168 147.807C236.168 147.733 236.195 147.669 236.248 147.615C236.302 147.559 236.367 147.531 236.444 147.531C236.524 147.531 236.59 147.559 236.644 147.615C236.7 147.669 236.728 147.733 236.728 147.807C236.728 147.887 236.7 147.953 236.644 148.007C236.59 148.063 236.524 148.091 236.444 148.091Z" fill="#B9B3B3"/>
<rect x="372.1" y="169.1" width="13.8" height="12.8" rx="3.9" fill="white"/>
<rect x="372.1" y="169.1" width="13.8" height="12.8" rx="3.9" stroke="#D8D8D9" stroke-width="0.2"/>
<path fill-rule="evenodd" clip-rule="evenodd" d="M378.712 172.107C378.871 171.964 379.129 171.964 379.288 172.107L381.881 174.431C382.04 174.574 382.04 174.805 381.881 174.948C381.722 175.09 381.464 175.09 381.305 174.948L379.407 173.247V179H378.593V173.247L376.695 174.948C376.536 175.09 376.278 175.09 376.119 174.948C375.96 174.805 375.96 174.574 376.119 174.431L378.712 172.107Z" fill="#161616" fill-opacity="0.5"/>
<rect width="90" height="254" transform="translate(0 22)" fill="#F8F8F8"/>
<g clip-path="url(#clip1_2445_1638)">
<rect width="12" height="12" transform="translate(9 28)" fill="white"/>
<path d="M18.6 28H11.4C10.0745 28 9 29.0745 9 30.4V37.6C9 38.9255 10.0745 40 11.4 40H18.6C19.9255 40 21 38.9255 21 37.6V30.4C21 29.0745 19.9255 28 18.6 28Z" fill="#161616"/>
<path d="M12.8047 31.4531C12.4148 30.9938 12.7411 30.2886 13.3436 30.2886H16.3929C16.4344 30.2886 16.4748 30.2919 16.5151 30.3015C16.8466 30.3797 18.4389 30.8487 18.3993 32.6303C18.3602 34.3917 16.9341 34.8701 16.609 34.9563C16.5651 34.968 16.5207 34.972 16.4753 34.972H16.1196C15.9121 34.972 15.715 34.8808 15.5807 34.7226L12.8047 31.4531Z" fill="white"/>
<path d="M12.7436 34.0685C12.4395 33.6827 12.7142 33.1162 13.2054 33.1162C13.388 33.1162 13.5603 33.201 13.6716 33.3457L16.3338 36.8067C16.6181 37.1762 16.3547 37.7113 15.8884 37.7113C15.7163 37.7113 15.5536 37.6324 15.4471 37.4973L12.7436 34.0685Z" fill="white"/>
<path d="M12.3152 36.3602C12.0083 35.9802 12.2787 35.4141 12.7672 35.4141C12.9476 35.4141 13.1177 35.4979 13.2277 35.6408L14.1227 36.8044C14.4078 37.175 14.1436 37.7116 13.676 37.7116C13.5057 37.7116 13.3445 37.6346 13.2375 37.5021L12.3152 36.3602Z" fill="white"/>
</g>
<rect x="9.16483" y="50.1648" width="74.6703" height="13.2637" rx="2.28253" fill="white"/>
<rect x="9.16483" y="50.1648" width="74.6703" height="13.2637" rx="2.28253" stroke="#E1E1E1" stroke-width="0.329668"/>
<path d="M36.7769 58.2969V55.0661H37.3861L38.75 57.2792V55.0661H39.3131V58.2969H38.7061L37.34 56.0838V58.2969H36.7769ZM40.8482 58.3569C40.6359 58.3569 40.442 58.3023 40.2666 58.193C40.0928 58.0838 39.9536 57.9369 39.8489 57.7523C39.7459 57.5676 39.6943 57.3638 39.6943 57.1407C39.6943 56.973 39.7243 56.8161 39.7843 56.67C39.8443 56.5223 39.9266 56.393 40.0313 56.2823C40.1374 56.17 40.2605 56.0823 40.4005 56.0192C40.5405 55.9561 40.6897 55.9246 40.8482 55.9246C41.0282 55.9246 41.1928 55.963 41.342 56.04C41.4928 56.1153 41.6205 56.2192 41.7251 56.3515C41.8297 56.4838 41.9059 56.6346 41.9535 56.8038C42.0012 56.973 42.012 57.15 41.9859 57.3346H40.2989C40.3205 57.4207 40.3559 57.4984 40.4051 57.5676C40.4543 57.6353 40.5166 57.69 40.592 57.7315C40.6674 57.7715 40.7528 57.7923 40.8482 57.7938C40.9466 57.7953 41.0359 57.7723 41.1159 57.7246C41.1974 57.6753 41.2651 57.6092 41.3189 57.5261L41.8935 57.66C41.7997 57.8646 41.6597 58.0323 41.4736 58.163C41.2874 58.2923 41.0789 58.3569 40.8482 58.3569ZM40.2805 56.9123H41.4159C41.3989 56.82 41.3628 56.7369 41.3074 56.663C41.2536 56.5877 41.1866 56.5277 41.1066 56.483C41.0266 56.4384 40.9405 56.4161 40.8482 56.4161C40.7559 56.4161 40.6705 56.4384 40.592 56.483C40.5136 56.5261 40.4466 56.5853 40.3913 56.6607C40.3374 56.7346 40.3005 56.8184 40.2805 56.9123ZM43.4439 58.2969H42.8855L42.1147 55.9892H42.6662L43.167 57.4823L43.6654 55.9892H44.2216L44.7201 57.4823L45.2208 55.9892H45.7724L45.0016 58.2969H44.4431L43.9424 56.7969L43.4439 58.2969ZM48.7275 57.6023L49.2351 57.8769C49.129 58.0215 48.9959 58.1376 48.8359 58.2253C48.6759 58.313 48.5013 58.3569 48.3121 58.3569C48.0998 58.3569 47.9059 58.3023 47.7305 58.193C47.5567 58.0838 47.4175 57.9376 47.3128 57.7546C47.2098 57.57 47.1582 57.3661 47.1582 57.143C47.1582 56.9738 47.1882 56.8161 47.2482 56.67C47.3082 56.5223 47.3905 56.393 47.4952 56.2823C47.6013 56.17 47.7244 56.0823 47.8644 56.0192C48.0044 55.9561 48.1536 55.9246 48.3121 55.9246C48.5013 55.9246 48.6759 55.9684 48.8359 56.0561C48.9959 56.1438 49.129 56.2615 49.2351 56.4092L48.7275 56.6815C48.6736 56.62 48.6098 56.5723 48.5359 56.5384C48.4636 56.5046 48.389 56.4877 48.3121 56.4877C48.2013 56.4877 48.1013 56.5184 48.0121 56.58C47.9228 56.64 47.8521 56.72 47.7998 56.82C47.7475 56.9184 47.7213 57.0261 47.7213 57.143C47.7213 57.2584 47.7475 57.3661 47.7998 57.4661C47.8521 57.5646 47.9228 57.6438 48.0121 57.7038C48.1013 57.7638 48.2013 57.7938 48.3121 57.7938C48.3921 57.7938 48.4682 57.7769 48.5405 57.743C48.6128 57.7076 48.6751 57.6607 48.7275 57.6023ZM51.6912 56.8384V58.2969H51.1281V56.9861C51.1281 56.8953 51.1058 56.813 51.0612 56.7392C51.0165 56.6638 50.9565 56.6046 50.8812 56.5615C50.8073 56.5169 50.725 56.4946 50.6342 56.4946C50.5435 56.4946 50.4604 56.5169 50.385 56.5615C50.3112 56.6046 50.2519 56.6638 50.2073 56.7392C50.1642 56.813 50.1427 56.8953 50.1427 56.9861V58.2969H49.5796L49.5773 54.8354H50.1404L50.1427 56.1946C50.2212 56.1115 50.315 56.0461 50.4242 55.9984C50.5335 55.9492 50.6512 55.9246 50.7773 55.9246C50.945 55.9246 51.0981 55.9661 51.2365 56.0492C51.375 56.1307 51.485 56.2407 51.5665 56.3792C51.6496 56.5161 51.6912 56.6692 51.6912 56.8384ZM53.8458 55.9892H54.4089V58.2969H53.8458L53.8205 58.0107C53.7574 58.1138 53.6735 58.1976 53.5689 58.2623C53.4658 58.3253 53.3435 58.3569 53.202 58.3569C53.0312 58.3569 52.8712 58.3246 52.722 58.26C52.5728 58.1953 52.4412 58.1061 52.3274 57.9923C52.2151 57.8784 52.1266 57.7469 52.062 57.5976C51.9989 57.4484 51.9674 57.2884 51.9674 57.1177C51.9674 56.953 51.9974 56.7984 52.0574 56.6538C52.1189 56.5092 52.2043 56.3823 52.3135 56.273C52.4228 56.1638 52.5489 56.0784 52.692 56.0169C52.8351 55.9554 52.9889 55.9246 53.1535 55.9246C53.3058 55.9246 53.442 55.9584 53.562 56.0261C53.6835 56.0938 53.7866 56.18 53.8712 56.2846L53.8458 55.9892ZM53.1882 57.8146C53.3082 57.8146 53.4143 57.7846 53.5066 57.7246C53.5989 57.6646 53.6712 57.5838 53.7235 57.4823C53.7758 57.3792 53.802 57.2661 53.802 57.143C53.802 57.0184 53.7758 56.9053 53.7235 56.8038C53.6712 56.7007 53.5982 56.6192 53.5043 56.5592C53.412 56.4992 53.3066 56.4692 53.1882 56.4692C53.0697 56.4692 52.9612 56.5 52.8628 56.5615C52.7659 56.6215 52.6882 56.7023 52.6297 56.8038C52.5728 56.9053 52.5443 57.0184 52.5443 57.143C52.5443 57.2677 52.5735 57.3807 52.632 57.4823C52.6905 57.5838 52.7682 57.6646 52.8651 57.7246C52.9635 57.7846 53.0712 57.8146 53.1882 57.8146ZM56.1057 56.5523H55.658V58.2969H55.0949V56.5523H54.7534V55.9892H55.0949V55.2646H55.658V55.9892H56.1057V56.5523Z" fill="#161616"/>
<path d="M9.27692 81V77.7692H9.66461V80.6123H11.1115V81H9.27692ZM12.4107 81.06C12.1984 81.06 12.0045 81.0054 11.8291 80.8962C11.6553 80.7869 11.5161 80.6408 11.4115 80.4577C11.3084 80.2731 11.2568 80.0692 11.2568 79.8462C11.2568 79.6769 11.2868 79.5192 11.3468 79.3731C11.4068 79.2254 11.4891 79.0962 11.5938 78.9854C11.6999 78.8731 11.823 78.7854 11.963 78.7223C12.103 78.6592 12.2522 78.6277 12.4107 78.6277C12.623 78.6277 12.8161 78.6823 12.9899 78.7916C13.1653 78.9008 13.3045 79.0477 13.4076 79.2323C13.5122 79.4169 13.5645 79.6215 13.5645 79.8462C13.5645 80.0139 13.5345 80.1708 13.4745 80.3169C13.4145 80.4631 13.3314 80.5923 13.2253 80.7046C13.1207 80.8154 12.9984 80.9023 12.8584 80.9654C12.7199 81.0285 12.5707 81.06 12.4107 81.06ZM12.4107 80.6723C12.5553 80.6723 12.6853 80.6346 12.8007 80.5592C12.9176 80.4823 13.0091 80.3815 13.0753 80.2569C13.143 80.1308 13.1768 79.9939 13.1768 79.8462C13.1768 79.6954 13.1422 79.5569 13.073 79.4308C13.0053 79.3046 12.9138 79.2039 12.7984 79.1285C12.683 79.0531 12.5538 79.0154 12.4107 79.0154C12.2661 79.0154 12.1361 79.0539 12.0207 79.1308C11.9053 79.2062 11.8138 79.3069 11.7461 79.4331C11.6784 79.5592 11.6445 79.6969 11.6445 79.8462C11.6445 80 11.6791 80.14 11.7484 80.2662C11.8176 80.3908 11.9107 80.49 12.0276 80.5638C12.1445 80.6362 12.2722 80.6723 12.4107 80.6723ZM15.7351 78.6923H16.1228V81.0738C16.1228 81.2262 16.0898 81.3677 16.0236 81.4985C15.959 81.6308 15.8713 81.7454 15.7605 81.8423C15.6498 81.9408 15.5236 82.0169 15.3821 82.0708C15.2405 82.1261 15.0928 82.1538 14.939 82.1538C14.779 82.1538 14.6244 82.1177 14.4751 82.0454C14.3259 81.9746 14.1951 81.8792 14.0828 81.7592C13.9721 81.6408 13.8921 81.5077 13.8428 81.36L14.1982 81.1985C14.2275 81.3046 14.2798 81.4 14.3551 81.4846C14.4321 81.5708 14.5213 81.6385 14.6228 81.6877C14.7259 81.7385 14.8313 81.7638 14.939 81.7638C15.0405 81.7638 15.1382 81.7461 15.2321 81.7108C15.3275 81.6754 15.4128 81.6262 15.4882 81.5631C15.5651 81.5015 15.6251 81.4285 15.6682 81.3438C15.7128 81.2608 15.7351 81.1708 15.7351 81.0738V80.6146C15.6567 80.7469 15.5528 80.8546 15.4236 80.9377C15.2959 81.0192 15.1467 81.06 14.9759 81.06C14.8128 81.06 14.6598 81.0285 14.5167 80.9654C14.3736 80.9023 14.2482 80.8154 14.1405 80.7046C14.0328 80.5923 13.9482 80.4631 13.8867 80.3169C13.8252 80.1708 13.7944 80.0139 13.7944 79.8462C13.7944 79.6785 13.8252 79.5215 13.8867 79.3754C13.9482 79.2277 14.0328 79.0985 14.1405 78.9877C14.2482 78.8754 14.3736 78.7877 14.5167 78.7246C14.6598 78.6616 14.8128 78.63 14.9759 78.63C15.1467 78.63 15.2959 78.6708 15.4236 78.7523C15.5528 78.8339 15.6567 78.9416 15.7351 79.0754V78.6923ZM14.9782 80.6838C15.1275 80.6838 15.2567 80.6454 15.3659 80.5685C15.4767 80.4915 15.5621 80.3892 15.6221 80.2615C15.6821 80.1339 15.7121 79.9954 15.7121 79.8462C15.7121 79.6923 15.6813 79.5523 15.6198 79.4262C15.5598 79.2985 15.4744 79.1969 15.3636 79.1215C15.2544 79.0446 15.1259 79.0062 14.9782 79.0062C14.8336 79.0062 14.7013 79.0439 14.5813 79.1192C14.4613 79.1946 14.3659 79.2962 14.2951 79.4239C14.2259 79.55 14.1913 79.6908 14.1913 79.8462C14.1913 80.0015 14.2267 80.1431 14.2975 80.2708C14.3698 80.3969 14.4651 80.4977 14.5836 80.5731C14.7036 80.6469 14.8351 80.6838 14.9782 80.6838ZM16.6462 78.6923H17.0339V81H16.6462V78.6923ZM16.8446 78.3162C16.7831 78.3162 16.7316 78.2962 16.69 78.2562C16.6485 78.2162 16.6277 78.1662 16.6277 78.1062C16.6277 78.0462 16.6485 77.9962 16.69 77.9562C16.7316 77.9162 16.7823 77.8962 16.8423 77.8962C16.9023 77.8962 16.9531 77.9162 16.9946 77.9562C17.0362 77.9962 17.0569 78.0462 17.0569 78.1062C17.0569 78.1662 17.0362 78.2162 16.9946 78.2562C16.9546 78.2962 16.9046 78.3162 16.8446 78.3162ZM19.6146 79.5646V81H19.2269V79.65C19.2269 79.5331 19.1985 79.4269 19.1416 79.3315C19.0846 79.2362 19.0085 79.1608 18.9131 79.1054C18.8177 79.0485 18.7116 79.02 18.5946 79.02C18.4793 79.02 18.3731 79.0485 18.2762 79.1054C18.1808 79.1608 18.1046 79.2362 18.0477 79.3315C17.9908 79.4269 17.9623 79.5331 17.9623 79.65V81H17.5746V78.6923H17.9623V78.9808C18.0439 78.8731 18.147 78.7877 18.2716 78.7246C18.3962 78.66 18.5316 78.6277 18.6777 78.6277C18.85 78.6277 19.0069 78.67 19.1485 78.7546C19.2916 78.8377 19.4046 78.95 19.4877 79.0915C19.5723 79.2331 19.6146 79.3908 19.6146 79.5646ZM21.5726 82.1538H21.1849V78.6923H21.5726V79.0869C21.6511 78.9516 21.7557 78.8423 21.8864 78.7592C22.0172 78.6746 22.1726 78.6323 22.3526 78.6323C22.5203 78.6323 22.6772 78.6639 22.8234 78.7269C22.971 78.79 23.1003 78.8777 23.211 78.99C23.3218 79.1008 23.4087 79.2292 23.4718 79.3754C23.5349 79.5215 23.5664 79.6785 23.5664 79.8462C23.5664 80.0139 23.5349 80.1715 23.4718 80.3192C23.4087 80.4669 23.3218 80.5969 23.211 80.7092C23.1003 80.82 22.971 80.9069 22.8234 80.97C22.6772 81.0331 22.5203 81.0646 22.3526 81.0646C22.1726 81.0646 22.0172 81.0231 21.8864 80.94C21.7557 80.8554 21.6511 80.7454 21.5726 80.61V82.1538ZM22.348 79.0085C22.1987 79.0085 22.068 79.0462 21.9557 79.1215C21.8434 79.1969 21.7564 79.2977 21.6949 79.4239C21.6349 79.55 21.6049 79.6908 21.6049 79.8462C21.6049 80 21.6349 80.1408 21.6949 80.2685C21.7564 80.3962 21.8426 80.4977 21.9534 80.5731C22.0657 80.6485 22.1972 80.6862 22.348 80.6862C22.4972 80.6862 22.6341 80.6492 22.7587 80.5754C22.8834 80.5 22.9834 80.3992 23.0587 80.2731C23.1341 80.1454 23.1718 80.0031 23.1718 79.8462C23.1718 79.6923 23.1349 79.5523 23.061 79.4262C22.9872 79.2985 22.888 79.1969 22.7634 79.1215C22.6387 79.0462 22.5003 79.0085 22.348 79.0085ZM25.7942 78.6923H26.1819V81H25.7942L25.778 80.61C25.7057 80.7438 25.6057 80.8523 25.478 80.9354C25.3519 81.0185 25.2011 81.06 25.0257 81.06C24.8565 81.06 24.698 81.0285 24.5503 80.9654C24.4026 80.9008 24.2719 80.8123 24.158 80.7C24.0457 80.5862 23.958 80.4554 23.8949 80.3077C23.8319 80.16 23.8003 80.0008 23.8003 79.83C23.8003 79.6654 23.8311 79.51 23.8926 79.3639C23.9542 79.2177 24.0396 79.09 24.1488 78.9808C24.2596 78.87 24.3873 78.7839 24.5319 78.7223C24.6765 78.6592 24.8319 78.6277 24.998 78.6277C25.1796 78.6277 25.3388 78.6708 25.4757 78.7569C25.6126 78.8416 25.7234 78.9516 25.808 79.0869L25.7942 78.6923ZM25.0188 80.6838C25.1711 80.6838 25.3026 80.6469 25.4134 80.5731C25.5257 80.4977 25.6119 80.3962 25.6719 80.2685C25.7334 80.1408 25.7642 80 25.7642 79.8462C25.7642 79.6892 25.7334 79.5477 25.6719 79.4215C25.6103 79.2939 25.5234 79.1931 25.4111 79.1192C25.3003 79.0439 25.1696 79.0062 25.0188 79.0062C24.8665 79.0062 24.728 79.0439 24.6034 79.1192C24.4788 79.1946 24.3796 79.2962 24.3057 79.4239C24.2334 79.55 24.1973 79.6908 24.1973 79.8462C24.1973 80.0015 24.2349 80.1431 24.3103 80.2708C24.3857 80.3969 24.4857 80.4977 24.6103 80.5731C24.7349 80.6469 24.8711 80.6838 25.0188 80.6838ZM28.4003 78.6923H28.788V81.0738C28.788 81.2262 28.7549 81.3677 28.6888 81.4985C28.6242 81.6308 28.5365 81.7454 28.4257 81.8423C28.3149 81.9408 28.1888 82.0169 28.0473 82.0708C27.9057 82.1261 27.758 82.1538 27.6042 82.1538C27.4442 82.1538 27.2896 82.1177 27.1403 82.0454C26.9911 81.9746 26.8603 81.8792 26.748 81.7592C26.6373 81.6408 26.5573 81.5077 26.508 81.36L26.8634 81.1985C26.8926 81.3046 26.945 81.4 27.0203 81.4846C27.0973 81.5708 27.1865 81.6385 27.288 81.6877C27.3911 81.7385 27.4965 81.7638 27.6042 81.7638C27.7057 81.7638 27.8034 81.7461 27.8973 81.7108C27.9926 81.6754 28.078 81.6262 28.1534 81.5631C28.2303 81.5015 28.2903 81.4285 28.3334 81.3438C28.378 81.2608 28.4003 81.1708 28.4003 81.0738V80.6146C28.3219 80.7469 28.218 80.8546 28.0888 80.9377C27.9611 81.0192 27.8119 81.06 27.6411 81.06C27.478 81.06 27.3249 81.0285 27.1819 80.9654C27.0388 80.9023 26.9134 80.8154 26.8057 80.7046C26.698 80.5923 26.6134 80.4631 26.5519 80.3169C26.4903 80.1708 26.4596 80.0139 26.4596 79.8462C26.4596 79.6785 26.4903 79.5215 26.5519 79.3754C26.6134 79.2277 26.698 79.0985 26.8057 78.9877C26.9134 78.8754 27.0388 78.7877 27.1819 78.7246C27.3249 78.6616 27.478 78.63 27.6411 78.63C27.8119 78.63 27.9611 78.6708 28.0888 78.7523C28.218 78.8339 28.3219 78.9416 28.4003 79.0754V78.6923ZM27.6434 80.6838C27.7926 80.6838 27.9219 80.6454 28.0311 80.5685C28.1419 80.4915 28.2273 80.3892 28.2873 80.2615C28.3473 80.1339 28.3773 79.9954 28.3773 79.8462C28.3773 79.6923 28.3465 79.5523 28.2849 79.4262C28.2249 79.2985 28.1396 79.1969 28.0288 79.1215C27.9196 79.0446 27.7911 79.0062 27.6434 79.0062C27.4988 79.0062 27.3665 79.0439 27.2465 79.1192C27.1265 79.1946 27.0311 79.2962 26.9603 79.4239C26.8911 79.55 26.8565 79.6908 26.8565 79.8462C26.8565 80.0015 26.8919 80.1431 26.9626 80.2708C27.035 80.3969 27.1303 80.4977 27.2488 80.5731C27.3688 80.6469 27.5003 80.6838 27.6434 80.6838ZM30.3267 81.06C30.1144 81.06 29.9206 81.0054 29.7452 80.8962C29.5714 80.7869 29.4321 80.6408 29.3275 80.4577C29.2244 80.2731 29.1729 80.0692 29.1729 79.8462C29.1729 79.6769 29.2029 79.5192 29.2629 79.3731C29.3229 79.2254 29.4052 79.0962 29.5098 78.9854C29.616 78.8731 29.739 78.7854 29.879 78.7223C30.019 78.6592 30.1683 78.6277 30.3267 78.6277C30.5006 78.6277 30.6598 78.6631 30.8044 78.7339C30.9506 78.8031 31.0752 78.9 31.1783 79.0246C31.2829 79.1492 31.3606 79.2939 31.4113 79.4585C31.4637 79.6231 31.4829 79.7992 31.469 79.9869H29.586C29.6044 80.1177 29.6475 80.2346 29.7152 80.3377C29.7829 80.4392 29.869 80.52 29.9737 80.58C30.0798 80.64 30.1975 80.6708 30.3267 80.6723C30.4652 80.6723 30.5906 80.6369 30.7029 80.5662C30.8152 80.4938 30.906 80.3954 30.9752 80.2708L31.3698 80.3631C31.2775 80.5677 31.1383 80.7354 30.9521 80.8662C30.766 80.9954 30.5575 81.06 30.3267 81.06ZM29.5744 79.6823H31.079C31.0667 79.5531 31.0252 79.4354 30.9544 79.3292C30.8837 79.2215 30.7937 79.1354 30.6844 79.0708C30.5752 79.0062 30.456 78.9739 30.3267 78.9739C30.1975 78.9739 30.079 79.0054 29.9714 79.0685C29.8637 79.1315 29.7744 79.2169 29.7037 79.3246C29.6344 79.4308 29.5914 79.55 29.5744 79.6823Z" fill="#484848"/>
<path d="M9.18 72V69.9H9.918C10.03 69.9 10.131 69.9275 10.221 69.9825C10.312 70.0375 10.384 70.112 10.437 70.206C10.491 70.299 10.518 70.403 10.518 70.518C10.518 70.619 10.498 70.711 10.458 70.794C10.418 70.877 10.363 70.9465 10.293 71.0025C10.224 71.0575 10.1455 71.0955 10.0575 71.1165L10.5675 72H10.2765L9.7755 71.1375H9.432V72H9.18ZM9.432 70.8855H9.8925C9.9605 70.8855 10.023 70.869 10.08 70.836C10.137 70.802 10.182 70.7565 10.215 70.6995C10.249 70.6415 10.266 70.5765 10.266 70.5045C10.266 70.4315 10.249 70.3665 10.215 70.3095C10.182 70.2515 10.137 70.206 10.08 70.173C10.023 70.139 9.9605 70.122 9.8925 70.122H9.432V70.8855ZM11.4748 72.039C11.3368 72.039 11.2108 72.0035 11.0968 71.9325C10.9838 71.8615 10.8933 71.7665 10.8253 71.6475C10.7583 71.5275 10.7248 71.395 10.7248 71.25C10.7248 71.14 10.7443 71.0375 10.7833 70.9425C10.8223 70.8465 10.8758 70.7625 10.9438 70.6905C11.0128 70.6175 11.0928 70.5605 11.1838 70.5195C11.2748 70.4785 11.3718 70.458 11.4748 70.458C11.5878 70.458 11.6913 70.481 11.7853 70.527C11.8803 70.572 11.9613 70.635 12.0283 70.716C12.0963 70.797 12.1468 70.891 12.1798 70.998C12.2138 71.105 12.2263 71.2195 12.2173 71.3415H10.9933C11.0053 71.4265 11.0333 71.5025 11.0773 71.5695C11.1213 71.6355 11.1773 71.688 11.2453 71.727C11.3143 71.766 11.3908 71.786 11.4748 71.787C11.5648 71.787 11.6463 71.764 11.7193 71.718C11.7923 71.671 11.8513 71.607 11.8963 71.526L12.1528 71.586C12.0928 71.719 12.0023 71.828 11.8813 71.913C11.7603 71.997 11.6248 72.039 11.4748 72.039ZM10.9858 71.1435H11.9638C11.9558 71.0595 11.9288 70.983 11.8828 70.914C11.8368 70.844 11.7783 70.788 11.7073 70.746C11.6363 70.704 11.5588 70.683 11.4748 70.683C11.3908 70.683 11.3138 70.7035 11.2438 70.7445C11.1738 70.7855 11.1158 70.841 11.0698 70.911C11.0248 70.98 10.9968 71.0575 10.9858 71.1435ZM13.4948 71.604L13.7198 71.7255C13.6518 71.8205 13.5653 71.8965 13.4603 71.9535C13.3563 72.0105 13.2433 72.039 13.1213 72.039C12.9833 72.039 12.8573 72.0035 12.7433 71.9325C12.6303 71.8615 12.5398 71.7665 12.4718 71.6475C12.4048 71.5275 12.3713 71.395 12.3713 71.25C12.3713 71.14 12.3908 71.0375 12.4298 70.9425C12.4688 70.8465 12.5223 70.7625 12.5903 70.6905C12.6593 70.6175 12.7393 70.5605 12.8303 70.5195C12.9213 70.4785 13.0183 70.458 13.1213 70.458C13.2433 70.458 13.3563 70.4865 13.4603 70.5435C13.5653 70.6005 13.6518 70.677 13.7198 70.773L13.4948 70.8945C13.4468 70.8355 13.3898 70.79 13.3238 70.758C13.2578 70.726 13.1903 70.71 13.1213 70.71C13.0283 70.71 12.9438 70.735 12.8678 70.785C12.7928 70.834 12.7333 70.8995 12.6893 70.9815C12.6453 71.0635 12.6233 71.153 12.6233 71.25C12.6233 71.347 12.6453 71.4365 12.6893 71.5185C12.7343 71.5995 12.7943 71.6645 12.8693 71.7135C12.9453 71.7625 13.0293 71.787 13.1213 71.787C13.1953 71.787 13.2648 71.77 13.3298 71.736C13.3948 71.702 13.4498 71.658 13.4948 71.604ZM14.6242 72.039C14.4862 72.039 14.3602 72.0035 14.2462 71.9325C14.1332 71.8615 14.0427 71.7665 13.9747 71.6475C13.9077 71.5275 13.8742 71.395 13.8742 71.25C13.8742 71.14 13.8937 71.0375 13.9327 70.9425C13.9717 70.8465 14.0252 70.7625 14.0932 70.6905C14.1622 70.6175 14.2422 70.5605 14.3332 70.5195C14.4242 70.4785 14.5212 70.458 14.6242 70.458C14.7372 70.458 14.8407 70.481 14.9347 70.527C15.0297 70.572 15.1107 70.635 15.1777 70.716C15.2457 70.797 15.2962 70.891 15.3292 70.998C15.3632 71.105 15.3757 71.2195 15.3667 71.3415H14.1427C14.1547 71.4265 14.1827 71.5025 14.2267 71.5695C14.2707 71.6355 14.3267 71.688 14.3947 71.727C14.4637 71.766 14.5402 71.786 14.6242 71.787C14.7142 71.787 14.7957 71.764 14.8687 71.718C14.9417 71.671 15.0007 71.607 15.0457 71.526L15.3022 71.586C15.2422 71.719 15.1517 71.828 15.0307 71.913C14.9097 71.997 14.7742 72.039 14.6242 72.039ZM14.1352 71.1435H15.1132C15.1052 71.0595 15.0782 70.983 15.0322 70.914C14.9862 70.844 14.9277 70.788 14.8567 70.746C14.7857 70.704 14.7082 70.683 14.6242 70.683C14.5402 70.683 14.4632 70.7035 14.3932 70.7445C14.3232 70.7855 14.2652 70.841 14.2192 70.911C14.1742 70.98 14.1462 71.0575 14.1352 71.1435ZM16.9455 71.067V72H16.6935V71.1225C16.6935 71.0465 16.675 70.9775 16.638 70.9155C16.601 70.8535 16.5515 70.8045 16.4895 70.7685C16.4275 70.7315 16.3585 70.713 16.2825 70.713C16.2075 70.713 16.1385 70.7315 16.0755 70.7685C16.0135 70.8045 15.964 70.8535 15.927 70.9155C15.89 70.9775 15.8715 71.0465 15.8715 71.1225V72H15.6195V70.5H15.8715V70.6875C15.9245 70.6175 15.9915 70.562 16.0725 70.521C16.1535 70.479 16.2415 70.458 16.3365 70.458C16.4485 70.458 16.5505 70.4855 16.6425 70.5405C16.7355 70.5945 16.809 70.6675 16.863 70.7595C16.918 70.8515 16.9455 70.954 16.9455 71.067ZM18.0224 70.752H17.6819L17.6804 72H17.4284L17.4299 70.752H17.1719V70.5H17.4299L17.4284 70.029H17.6804L17.6819 70.5H18.0224V70.752ZM20.0455 71.604L20.2705 71.7255C20.2025 71.8205 20.116 71.8965 20.011 71.9535C19.907 72.0105 19.794 72.039 19.672 72.039C19.534 72.039 19.408 72.0035 19.294 71.9325C19.181 71.8615 19.0905 71.7665 19.0225 71.6475C18.9555 71.5275 18.922 71.395 18.922 71.25C18.922 71.14 18.9415 71.0375 18.9805 70.9425C19.0195 70.8465 19.073 70.7625 19.141 70.6905C19.21 70.6175 19.29 70.5605 19.381 70.5195C19.472 70.4785 19.569 70.458 19.672 70.458C19.794 70.458 19.907 70.4865 20.011 70.5435C20.116 70.6005 20.2025 70.677 20.2705 70.773L20.0455 70.8945C19.9975 70.8355 19.9405 70.79 19.8745 70.758C19.8085 70.726 19.741 70.71 19.672 70.71C19.579 70.71 19.4945 70.735 19.4185 70.785C19.3435 70.834 19.284 70.8995 19.24 70.9815C19.196 71.0635 19.174 71.153 19.174 71.25C19.174 71.347 19.196 71.4365 19.24 71.5185C19.285 71.5995 19.345 71.6645 19.42 71.7135C19.496 71.7625 19.58 71.787 19.672 71.787C19.746 71.787 19.8155 71.77 19.8805 71.736C19.9455 71.702 20.0005 71.658 20.0455 71.604ZM21.841 71.067V72H21.589V71.1225C21.589 71.0465 21.5705 70.9775 21.5335 70.9155C21.4965 70.8535 21.447 70.8045 21.385 70.7685C21.323 70.7315 21.254 70.713 21.178 70.713C21.103 70.713 21.034 70.7315 20.971 70.7685C20.909 70.8045 20.8595 70.8535 20.8225 70.9155C20.7855 70.9775 20.767 71.0465 20.767 71.1225V72H20.515V69.75H20.767V70.6875C20.82 70.6175 20.887 70.562 20.968 70.521C21.049 70.479 21.137 70.458 21.232 70.458C21.344 70.458 21.446 70.4855 21.538 70.5405C21.631 70.5945 21.7045 70.6675 21.7585 70.7595C21.8135 70.8515 21.841 70.954 21.841 71.067ZM23.3176 70.5H23.5696V72H23.3176L23.3071 71.7465C23.2601 71.8335 23.1951 71.904 23.1121 71.958C23.0301 72.012 22.9321 72.039 22.8181 72.039C22.7081 72.039 22.6051 72.0185 22.5091 71.9775C22.4131 71.9355 22.3281 71.878 22.2541 71.805C22.1811 71.731 22.1241 71.646 22.0831 71.55C22.0421 71.454 22.0216 71.3505 22.0216 71.2395C22.0216 71.1325 22.0416 71.0315 22.0816 70.9365C22.1216 70.8415 22.1771 70.7585 22.2481 70.6875C22.3201 70.6155 22.4031 70.5595 22.4971 70.5195C22.5911 70.4785 22.6921 70.458 22.8001 70.458C22.9181 70.458 23.0216 70.486 23.1106 70.542C23.1996 70.597 23.2716 70.6685 23.3266 70.7565L23.3176 70.5ZM22.8136 71.7945C22.9126 71.7945 22.9981 71.7705 23.0701 71.7225C23.1431 71.6735 23.1991 71.6075 23.2381 71.5245C23.2781 71.4415 23.2981 71.35 23.2981 71.25C23.2981 71.148 23.2781 71.056 23.2381 70.974C23.1981 70.891 23.1416 70.8255 23.0686 70.7775C22.9966 70.7285 22.9116 70.704 22.8136 70.704C22.7146 70.704 22.6246 70.7285 22.5436 70.7775C22.4626 70.8265 22.3981 70.8925 22.3501 70.9755C22.3031 71.0575 22.2796 71.149 22.2796 71.25C22.2796 71.351 22.3041 71.443 22.3531 71.526C22.4021 71.608 22.4671 71.6735 22.5481 71.7225C22.6291 71.7705 22.7176 71.7945 22.8136 71.7945ZM24.6465 70.752H24.306L24.3045 72H24.0525L24.054 70.752H23.796V70.5H24.054L24.0525 70.029H24.3045L24.306 70.5H24.6465V70.752ZM25.3582 72.0285C25.2772 72.0255 25.1982 72.0105 25.1212 71.9835C25.0452 71.9555 24.9782 71.918 24.9202 71.871C24.8632 71.823 24.8217 71.768 24.7957 71.706L25.0117 71.613C25.0267 71.647 25.0537 71.679 25.0927 71.709C25.1317 71.739 25.1767 71.763 25.2277 71.781C25.2787 71.799 25.3302 71.808 25.3822 71.808C25.4372 71.808 25.4887 71.7995 25.5367 71.7825C25.5847 71.7655 25.6237 71.7405 25.6537 71.7075C25.6847 71.6735 25.7002 71.633 25.7002 71.586C25.7002 71.536 25.6832 71.497 25.6492 71.469C25.6162 71.44 25.5742 71.4175 25.5232 71.4015C25.4732 71.3845 25.4222 71.3685 25.3702 71.3535C25.2672 71.3275 25.1752 71.2965 25.0942 71.2605C25.0132 71.2235 24.9492 71.177 24.9022 71.121C24.8562 71.064 24.8332 70.9915 24.8332 70.9035C24.8332 70.8105 24.8587 70.73 24.9097 70.662C24.9617 70.594 25.0297 70.5415 25.1137 70.5045C25.1977 70.4675 25.2877 70.449 25.3837 70.449C25.5047 70.449 25.6152 70.475 25.7152 70.527C25.8152 70.579 25.8897 70.6495 25.9387 70.7385L25.7362 70.857C25.7192 70.821 25.6932 70.7895 25.6582 70.7625C25.6232 70.7345 25.5832 70.7125 25.5382 70.6965C25.4932 70.6805 25.4472 70.672 25.4002 70.671C25.3422 70.669 25.2877 70.6765 25.2367 70.6935C25.1867 70.7105 25.1462 70.7365 25.1152 70.7715C25.0852 70.8055 25.0702 70.848 25.0702 70.899C25.0702 70.949 25.0862 70.987 25.1182 71.013C25.1512 71.039 25.1937 71.06 25.2457 71.076C25.2987 71.091 25.3562 71.1085 25.4182 71.1285C25.5092 71.1575 25.5942 71.191 25.6732 71.229C25.7522 71.267 25.8157 71.3145 25.8637 71.3715C25.9127 71.4285 25.9367 71.499 25.9357 71.583C25.9357 71.675 25.9082 71.7555 25.8532 71.8245C25.7982 71.8925 25.7267 71.9445 25.6387 71.9805C25.5517 72.0165 25.4582 72.0325 25.3582 72.0285Z" fill="#5C5C5C"/>
<path d="M9.27692 92V88.7692H9.66461V91.6123H11.1115V92H9.27692ZM13.2507 89.6923H13.6384V92H13.2507L13.2345 91.61C13.1622 91.7438 13.0622 91.8523 12.9345 91.9354C12.8084 92.0185 12.6576 92.06 12.4822 92.06C12.313 92.06 12.1545 92.0285 12.0068 91.9654C11.8591 91.9008 11.7284 91.8123 11.6145 91.7C11.5022 91.5862 11.4145 91.4554 11.3515 91.3077C11.2884 91.16 11.2568 91.0008 11.2568 90.83C11.2568 90.6654 11.2876 90.51 11.3491 90.3639C11.4107 90.2177 11.4961 90.09 11.6053 89.9808C11.7161 89.87 11.8438 89.7839 11.9884 89.7223C12.133 89.6592 12.2884 89.6277 12.4545 89.6277C12.6361 89.6277 12.7953 89.6708 12.9322 89.7569C13.0691 89.8416 13.1799 89.9516 13.2645 90.0869L13.2507 89.6923ZM12.4753 91.6838C12.6276 91.6838 12.7591 91.6469 12.8699 91.5731C12.9822 91.4977 13.0684 91.3962 13.1284 91.2685C13.1899 91.1408 13.2207 91 13.2207 90.8462C13.2207 90.6892 13.1899 90.5477 13.1284 90.4215C13.0668 90.2939 12.9799 90.1931 12.8676 90.1192C12.7568 90.0439 12.6261 90.0062 12.4753 90.0062C12.323 90.0062 12.1845 90.0439 12.0599 90.1192C11.9353 90.1946 11.8361 90.2962 11.7622 90.4239C11.6899 90.55 11.6538 90.6908 11.6538 90.8462C11.6538 91.0015 11.6915 91.1431 11.7668 91.2708C11.8422 91.3969 11.9422 91.4977 12.0668 91.5731C12.1914 91.6469 12.3276 91.6838 12.4753 91.6838ZM16.1396 90.5646V92H15.7519V90.65C15.7519 90.5331 15.7234 90.4269 15.6665 90.3315C15.6096 90.2362 15.5334 90.1608 15.4381 90.1054C15.3427 90.0485 15.2365 90.02 15.1196 90.02C15.0042 90.02 14.8981 90.0485 14.8011 90.1054C14.7058 90.1608 14.6296 90.2362 14.5727 90.3315C14.5158 90.4269 14.4873 90.5331 14.4873 90.65V92H14.0996V89.6923H14.4873V89.9808C14.5688 89.8731 14.6719 89.7877 14.7965 89.7246C14.9211 89.66 15.0565 89.6277 15.2027 89.6277C15.375 89.6277 15.5319 89.67 15.6734 89.7546C15.8165 89.8377 15.9296 89.95 16.0127 90.0915C16.0973 90.2331 16.1396 90.3908 16.1396 90.5646ZM18.4137 88.5385H18.8014V92H18.4137V91.6077C18.3352 91.7431 18.2299 91.8523 18.0976 91.9354C17.9652 92.0185 17.8099 92.06 17.6314 92.06C17.4637 92.06 17.3068 92.0285 17.1606 91.9654C17.0145 91.9023 16.8853 91.8154 16.7729 91.7046C16.6622 91.5923 16.5753 91.4631 16.5122 91.3169C16.4491 91.1708 16.4176 91.0139 16.4176 90.8462C16.4176 90.6785 16.4491 90.5215 16.5122 90.3754C16.5753 90.2277 16.6622 90.0985 16.7729 89.9877C16.8853 89.8754 17.0145 89.7877 17.1606 89.7246C17.3068 89.6616 17.4637 89.63 17.6314 89.63C17.8099 89.63 17.9652 89.6716 18.0976 89.7546C18.2299 89.8377 18.3352 89.9469 18.4137 90.0823V88.5385ZM17.636 91.6838C17.7883 91.6838 17.9199 91.6469 18.0306 91.5731C18.1429 91.4977 18.2291 91.3962 18.2891 91.2685C18.3506 91.1408 18.3814 91 18.3814 90.8462C18.3814 90.6892 18.3506 90.5477 18.2891 90.4215C18.2276 90.2939 18.1406 90.1931 18.0283 90.1192C17.9176 90.0439 17.7868 90.0062 17.636 90.0062C17.4837 90.0062 17.3453 90.0439 17.2206 90.1192C17.0976 90.1946 16.9991 90.2962 16.9253 90.4239C16.8514 90.55 16.8145 90.6908 16.8145 90.8462C16.8145 91.0015 16.8522 91.1431 16.9276 91.2708C17.0029 91.3969 17.1029 91.4977 17.2276 91.5731C17.3522 91.6469 17.4883 91.6838 17.636 91.6838ZM19.355 89.6923H19.7427V92H19.355V89.6923ZM19.5534 89.3162C19.4919 89.3162 19.4404 89.2962 19.3988 89.2562C19.3573 89.2162 19.3365 89.1662 19.3365 89.1062C19.3365 89.0462 19.3573 88.9962 19.3988 88.9562C19.4404 88.9162 19.4911 88.8962 19.5511 88.8962C19.6111 88.8962 19.6619 88.9162 19.7034 88.9562C19.745 88.9962 19.7658 89.0462 19.7658 89.1062C19.7658 89.1662 19.745 89.2162 19.7034 89.2562C19.6634 89.2962 19.6134 89.3162 19.5534 89.3162ZM22.3235 90.5646V92H21.9358V90.65C21.9358 90.5331 21.9073 90.4269 21.8504 90.3315C21.7935 90.2362 21.7173 90.1608 21.6219 90.1054C21.5265 90.0485 21.4204 90.02 21.3035 90.02C21.1881 90.02 21.0819 90.0485 20.985 90.1054C20.8896 90.1608 20.8135 90.2362 20.7565 90.3315C20.6996 90.4269 20.6712 90.5331 20.6712 90.65V92H20.2835V89.6923H20.6712V89.9808C20.7527 89.8731 20.8558 89.7877 20.9804 89.7246C21.105 89.66 21.2404 89.6277 21.3865 89.6277C21.5588 89.6277 21.7158 89.67 21.8573 89.7546C22.0004 89.8377 22.1135 89.95 22.1965 90.0915C22.2811 90.2331 22.3235 90.3908 22.3235 90.5646ZM24.5422 89.6923H24.9299V92.0738C24.9299 92.2262 24.8968 92.3677 24.8306 92.4985C24.766 92.6308 24.6783 92.7454 24.5676 92.8423C24.4568 92.9408 24.3306 93.0169 24.1891 93.0708C24.0476 93.1261 23.8999 93.1538 23.746 93.1538C23.586 93.1538 23.4314 93.1177 23.2822 93.0454C23.133 92.9746 23.0022 92.8792 22.8899 92.7592C22.7791 92.6408 22.6991 92.5077 22.6499 92.36L23.0053 92.1985C23.0345 92.3046 23.0868 92.4 23.1622 92.4846C23.2391 92.5708 23.3283 92.6385 23.4299 92.6877C23.533 92.7385 23.6383 92.7638 23.746 92.7638C23.8476 92.7638 23.9453 92.7461 24.0391 92.7108C24.1345 92.6754 24.2199 92.6262 24.2953 92.5631C24.3722 92.5015 24.4322 92.4285 24.4753 92.3438C24.5199 92.2608 24.5422 92.1708 24.5422 92.0738V91.6146C24.4637 91.7469 24.3599 91.8546 24.2306 91.9377C24.103 92.0192 23.9537 92.06 23.783 92.06C23.6199 92.06 23.4668 92.0285 23.3237 91.9654C23.1806 91.9023 23.0553 91.8154 22.9476 91.7046C22.8399 91.5923 22.7553 91.4631 22.6937 91.3169C22.6322 91.1708 22.6014 91.0139 22.6014 90.8462C22.6014 90.6785 22.6322 90.5215 22.6937 90.3754C22.7553 90.2277 22.8399 90.0985 22.9476 89.9877C23.0553 89.8754 23.1806 89.7877 23.3237 89.7246C23.4668 89.6616 23.6199 89.63 23.783 89.63C23.9537 89.63 24.103 89.6708 24.2306 89.7523C24.3599 89.8339 24.4637 89.9416 24.5422 90.0754V89.6923ZM23.7853 91.6838C23.9345 91.6838 24.0637 91.6454 24.173 91.5685C24.2837 91.4915 24.3691 91.3892 24.4291 91.2615C24.4891 91.1339 24.5191 90.9954 24.5191 90.8462C24.5191 90.6923 24.4883 90.5523 24.4268 90.4262C24.3668 90.2985 24.2814 90.1969 24.1706 90.1215C24.0614 90.0446 23.933 90.0062 23.7853 90.0062C23.6406 90.0062 23.5083 90.0439 23.3883 90.1192C23.2683 90.1946 23.173 90.2962 23.1022 90.4239C23.033 90.55 22.9983 90.6908 22.9983 90.8462C22.9983 91.0015 23.0337 91.1431 23.1045 91.2708C23.1768 91.3969 23.2722 91.4977 23.3906 91.5731C23.5106 91.6469 23.6422 91.6838 23.7853 91.6838ZM26.9812 93.1538H26.5935V89.6923H26.9812V90.0869C27.0597 89.9516 27.1643 89.8423 27.2951 89.7592C27.4258 89.6746 27.5812 89.6323 27.7612 89.6323C27.9289 89.6323 28.0858 89.6639 28.232 89.7269C28.3797 89.79 28.5089 89.8777 28.6197 89.99C28.7304 90.1008 28.8174 90.2292 28.8804 90.3754C28.9435 90.5215 28.975 90.6785 28.975 90.8462C28.975 91.0139 28.9435 91.1715 28.8804 91.3192C28.8174 91.4669 28.7304 91.5969 28.6197 91.7092C28.5089 91.82 28.3797 91.9069 28.232 91.97C28.0858 92.0331 27.9289 92.0646 27.7612 92.0646C27.5812 92.0646 27.4258 92.0231 27.2951 91.94C27.1643 91.8554 27.0597 91.7454 26.9812 91.61V93.1538ZM27.7566 90.0085C27.6074 90.0085 27.4766 90.0462 27.3643 90.1215C27.252 90.1969 27.1651 90.2977 27.1035 90.4239C27.0435 90.55 27.0135 90.6908 27.0135 90.8462C27.0135 91 27.0435 91.1408 27.1035 91.2685C27.1651 91.3962 27.2512 91.4977 27.362 91.5731C27.4743 91.6485 27.6058 91.6862 27.7566 91.6862C27.9058 91.6862 28.0427 91.6492 28.1674 91.5754C28.292 91.5 28.392 91.3992 28.4674 91.2731C28.5427 91.1454 28.5804 91.0031 28.5804 90.8462C28.5804 90.6923 28.5435 90.5523 28.4697 90.4262C28.3958 90.2985 28.2966 90.1969 28.172 90.1215C28.0474 90.0462 27.9089 90.0085 27.7566 90.0085ZM31.2028 89.6923H31.5905V92H31.2028L31.1866 91.61C31.1143 91.7438 31.0143 91.8523 30.8866 91.9354C30.7605 92.0185 30.6097 92.06 30.4343 92.06C30.2651 92.06 30.1066 92.0285 29.9589 91.9654C29.8113 91.9008 29.6805 91.8123 29.5666 91.7C29.4543 91.5862 29.3666 91.4554 29.3036 91.3077C29.2405 91.16 29.209 91.0008 29.209 90.83C29.209 90.6654 29.2397 90.51 29.3013 90.3639C29.3628 90.2177 29.4482 90.09 29.5574 89.9808C29.6682 89.87 29.7959 89.7839 29.9405 89.7223C30.0851 89.6592 30.2405 89.6277 30.4066 89.6277C30.5882 89.6277 30.7474 89.6708 30.8843 89.7569C31.0213 89.8416 31.132 89.9516 31.2166 90.0869L31.2028 89.6923ZM30.4274 91.6838C30.5797 91.6838 30.7113 91.6469 30.822 91.5731C30.9343 91.4977 31.0205 91.3962 31.0805 91.2685C31.142 91.1408 31.1728 91 31.1728 90.8462C31.1728 90.6892 31.142 90.5477 31.0805 90.4215C31.0189 90.2939 30.932 90.1931 30.8197 90.1192C30.7089 90.0439 30.5782 90.0062 30.4274 90.0062C30.2751 90.0062 30.1366 90.0439 30.012 90.1192C29.8874 90.1946 29.7882 90.2962 29.7143 90.4239C29.642 90.55 29.6059 90.6908 29.6059 90.8462C29.6059 91.0015 29.6436 91.1431 29.719 91.2708C29.7943 91.3969 29.8943 91.4977 30.0189 91.5731C30.1436 91.6469 30.2797 91.6838 30.4274 91.6838ZM33.809 89.6923H34.1966V92.0738C34.1966 92.2262 34.1636 92.3677 34.0974 92.4985C34.0328 92.6308 33.9451 92.7454 33.8343 92.8423C33.7236 92.9408 33.5974 93.0169 33.4559 93.0708C33.3143 93.1261 33.1666 93.1538 33.0128 93.1538C32.8528 93.1538 32.6982 93.1177 32.549 93.0454C32.3997 92.9746 32.269 92.8792 32.1567 92.7592C32.0459 92.6408 31.9659 92.5077 31.9167 92.36L32.272 92.1985C32.3013 92.3046 32.3536 92.4 32.429 92.4846C32.5059 92.5708 32.5951 92.6385 32.6966 92.6877C32.7997 92.7385 32.9051 92.7638 33.0128 92.7638C33.1143 92.7638 33.212 92.7461 33.3059 92.7108C33.4013 92.6754 33.4866 92.6262 33.562 92.5631C33.639 92.5015 33.699 92.4285 33.742 92.3438C33.7866 92.2608 33.809 92.1708 33.809 92.0738V91.6146C33.7305 91.7469 33.6266 91.8546 33.4974 91.9377C33.3697 92.0192 33.2205 92.06 33.0497 92.06C32.8866 92.06 32.7336 92.0285 32.5905 91.9654C32.4474 91.9023 32.322 91.8154 32.2143 91.7046C32.1067 91.5923 32.022 91.4631 31.9605 91.3169C31.899 91.1708 31.8682 91.0139 31.8682 90.8462C31.8682 90.6785 31.899 90.5215 31.9605 90.3754C32.022 90.2277 32.1067 90.0985 32.2143 89.9877C32.322 89.8754 32.4474 89.7877 32.5905 89.7246C32.7336 89.6616 32.8866 89.63 33.0497 89.63C33.2205 89.63 33.3697 89.6708 33.4974 89.7523C33.6266 89.8339 33.7305 89.9416 33.809 90.0754V89.6923ZM33.052 91.6838C33.2013 91.6838 33.3305 91.6454 33.4397 91.5685C33.5505 91.4915 33.6359 91.3892 33.6959 91.2615C33.7559 91.1339 33.7859 90.9954 33.7859 90.8462C33.7859 90.6923 33.7551 90.5523 33.6936 90.4262C33.6336 90.2985 33.5482 90.1969 33.4374 90.1215C33.3282 90.0446 33.1997 90.0062 33.052 90.0062C32.9074 90.0062 32.7751 90.0439 32.6551 90.1192C32.5351 90.1946 32.4397 90.2962 32.369 90.4239C32.2997 90.55 32.2651 90.6908 32.2651 90.8462C32.2651 91.0015 32.3005 91.1431 32.3713 91.2708C32.4436 91.3969 32.539 91.4977 32.6574 91.5731C32.7774 91.6469 32.909 91.6838 33.052 91.6838ZM35.7354 92.06C35.523 92.06 35.3292 92.0054 35.1538 91.8962C34.98 91.7869 34.8407 91.6408 34.7361 91.4577C34.6331 91.2731 34.5815 91.0692 34.5815 90.8462C34.5815 90.6769 34.6115 90.5192 34.6715 90.3731C34.7315 90.2254 34.8138 90.0962 34.9184 89.9854C35.0246 89.8731 35.1477 89.7854 35.2877 89.7223C35.4277 89.6592 35.5769 89.6277 35.7354 89.6277C35.9092 89.6277 36.0684 89.6631 36.213 89.7339C36.3592 89.8031 36.4838 89.9 36.5869 90.0246C36.6915 90.1492 36.7692 90.2939 36.82 90.4585C36.8723 90.6231 36.8915 90.7992 36.8777 90.9869H34.9946C35.0131 91.1177 35.0561 91.2346 35.1238 91.3377C35.1915 91.4392 35.2777 91.52 35.3823 91.58C35.4884 91.64 35.6061 91.6708 35.7354 91.6723C35.8738 91.6723 35.9992 91.6369 36.1115 91.5662C36.2238 91.4938 36.3146 91.3954 36.3838 91.2708L36.7784 91.3631C36.6861 91.5677 36.5469 91.7354 36.3607 91.8662C36.1746 91.9954 35.9661 92.06 35.7354 92.06ZM34.9831 90.6823H36.4877C36.4754 90.5531 36.4338 90.4354 36.363 90.3292C36.2923 90.2215 36.2023 90.1354 36.093 90.0708C35.9838 90.0062 35.8646 89.9739 35.7354 89.9739C35.6061 89.9739 35.4877 90.0054 35.38 90.0685C35.2723 90.1315 35.1831 90.2169 35.1123 90.3246C35.0431 90.4308 35 90.55 34.9831 90.6823Z" fill="#484848"/>
<path d="M10.4146 103.06C10.2408 103.06 10.0731 103.033 9.91153 102.979C9.75 102.924 9.60846 102.845 9.48692 102.744C9.36692 102.642 9.28154 102.522 9.23077 102.382L9.59307 102.245C9.62384 102.332 9.68077 102.407 9.76384 102.472C9.84846 102.535 9.94769 102.584 10.0615 102.619C10.1754 102.655 10.2931 102.672 10.4146 102.672C10.5531 102.672 10.6815 102.65 10.8 102.605C10.92 102.559 11.0169 102.495 11.0908 102.414C11.1646 102.332 11.2015 102.237 11.2015 102.128C11.2015 102.015 11.1631 101.924 11.0861 101.853C11.0092 101.781 10.9108 101.724 10.7908 101.682C10.6708 101.639 10.5454 101.606 10.4146 101.583C10.1915 101.546 9.99153 101.494 9.81461 101.426C9.63923 101.357 9.5 101.261 9.39692 101.138C9.29538 101.015 9.24461 100.852 9.24461 100.651C9.24461 100.463 9.29846 100.299 9.40615 100.159C9.51538 100.019 9.65923 99.9108 9.83769 99.8339C10.0161 99.7569 10.2085 99.7185 10.4146 99.7185C10.5854 99.7185 10.7508 99.7454 10.9108 99.7992C11.0723 99.8516 11.2146 99.9285 11.3377 100.03C11.4608 100.132 11.5492 100.255 11.6031 100.402L11.2361 100.535C11.2054 100.448 11.1477 100.372 11.0631 100.309C10.98 100.245 10.8815 100.195 10.7677 100.162C10.6554 100.126 10.5377 100.108 10.4146 100.108C10.2777 100.107 10.15 100.129 10.0315 100.175C9.91307 100.222 9.81692 100.285 9.74307 100.367C9.66923 100.448 9.6323 100.543 9.6323 100.651C9.6323 100.78 9.66615 100.879 9.73384 100.948C9.80307 101.016 9.89692 101.067 10.0154 101.101C10.1338 101.135 10.2669 101.165 10.4146 101.191C10.6238 101.226 10.8177 101.282 10.9961 101.359C11.1746 101.435 11.3177 101.535 11.4254 101.662C11.5346 101.788 11.5892 101.943 11.5892 102.128C11.5892 102.315 11.5346 102.479 11.4254 102.619C11.3177 102.759 11.1746 102.868 10.9961 102.945C10.8177 103.022 10.6238 103.06 10.4146 103.06ZM12.0804 100.692H12.4681V103H12.0804V100.692ZM12.2789 100.316C12.2173 100.316 12.1658 100.296 12.1242 100.256C12.0827 100.216 12.0619 100.166 12.0619 100.106C12.0619 100.046 12.0827 99.9962 12.1242 99.9562C12.1658 99.9162 12.2165 99.8962 12.2765 99.8962C12.3365 99.8962 12.3873 99.9162 12.4288 99.9562C12.4704 99.9962 12.4912 100.046 12.4912 100.106C12.4912 100.166 12.4704 100.216 12.4288 100.256C12.3888 100.296 12.3389 100.316 12.2789 100.316ZM14.7931 100.692H15.1808V103.074C15.1808 103.226 15.1478 103.368 15.0816 103.498C15.017 103.631 14.9293 103.745 14.8185 103.842C14.7078 103.941 14.5816 104.017 14.4401 104.071C14.2985 104.126 14.1508 104.154 13.997 104.154C13.837 104.154 13.6824 104.118 13.5331 104.045C13.3839 103.975 13.2531 103.879 13.1408 103.759C13.0301 103.641 12.9501 103.508 12.9008 103.36L13.2562 103.198C13.2855 103.305 13.3378 103.4 13.4131 103.485C13.4901 103.571 13.5793 103.638 13.6808 103.688C13.7839 103.738 13.8893 103.764 13.997 103.764C14.0985 103.764 14.1962 103.746 14.2901 103.711C14.3854 103.675 14.4708 103.626 14.5462 103.563C14.6231 103.502 14.6831 103.428 14.7262 103.344C14.7708 103.261 14.7931 103.171 14.7931 103.074V102.615C14.7147 102.747 14.6108 102.855 14.4816 102.938C14.3539 103.019 14.2047 103.06 14.0339 103.06C13.8708 103.06 13.7178 103.028 13.5747 102.965C13.4316 102.902 13.3062 102.815 13.1985 102.705C13.0908 102.592 13.0062 102.463 12.9447 102.317C12.8831 102.171 12.8524 102.014 12.8524 101.846C12.8524 101.678 12.8831 101.522 12.9447 101.375C13.0062 101.228 13.0908 101.098 13.1985 100.988C13.3062 100.875 13.4316 100.788 13.5747 100.725C13.7178 100.662 13.8708 100.63 14.0339 100.63C14.2047 100.63 14.3539 100.671 14.4816 100.752C14.6108 100.834 14.7147 100.942 14.7931 101.075V100.692ZM14.0362 102.684C14.1854 102.684 14.3147 102.645 14.4239 102.568C14.5347 102.492 14.6201 102.389 14.6801 102.262C14.7401 102.134 14.7701 101.995 14.7701 101.846C14.7701 101.692 14.7393 101.552 14.6778 101.426C14.6178 101.298 14.5324 101.197 14.4216 101.122C14.3124 101.045 14.1839 101.006 14.0362 101.006C13.8916 101.006 13.7593 101.044 13.6393 101.119C13.5193 101.195 13.4239 101.296 13.3531 101.424C13.2839 101.55 13.2493 101.691 13.2493 101.846C13.2493 102.002 13.2847 102.143 13.3555 102.271C13.4278 102.397 13.5231 102.498 13.6416 102.573C13.7616 102.647 13.8931 102.684 14.0362 102.684ZM17.7757 101.565V103H17.388V101.65C17.388 101.533 17.3596 101.427 17.3026 101.332C17.2457 101.236 17.1696 101.161 17.0742 101.105C16.9788 101.048 16.8726 101.02 16.7557 101.02C16.6403 101.02 16.5342 101.048 16.4373 101.105C16.3419 101.161 16.2657 101.236 16.2088 101.332C16.1519 101.427 16.1234 101.533 16.1234 101.65V103H15.7357V100.692H16.1234V100.981C16.2049 100.873 16.308 100.788 16.4326 100.725C16.5573 100.66 16.6926 100.628 16.8388 100.628C17.0111 100.628 17.168 100.67 17.3096 100.755C17.4526 100.838 17.5657 100.95 17.6488 101.092C17.7334 101.233 17.7757 101.391 17.7757 101.565ZM19.2537 102.123V100.692H19.6414V102.038C19.6414 102.155 19.6698 102.261 19.7267 102.356C19.7837 102.452 19.8598 102.528 19.9552 102.585C20.0521 102.64 20.1583 102.668 20.2737 102.668C20.3906 102.668 20.496 102.64 20.5898 102.585C20.6852 102.528 20.7613 102.452 20.8183 102.356C20.8752 102.261 20.9037 102.155 20.9037 102.038V100.692H21.2913L21.2937 103H20.906L20.9037 102.707C20.8221 102.815 20.719 102.901 20.5944 102.965C20.4698 103.028 20.3352 103.06 20.1906 103.06C20.0183 103.06 19.8606 103.018 19.7175 102.935C19.576 102.851 19.4629 102.738 19.3783 102.596C19.2952 102.455 19.2537 102.297 19.2537 102.123ZM22.0819 104.154H21.6942V100.692H22.0819V101.087C22.1604 100.952 22.265 100.842 22.3957 100.759C22.5265 100.675 22.6819 100.632 22.8619 100.632C23.0296 100.632 23.1865 100.664 23.3327 100.727C23.4804 100.79 23.6096 100.878 23.7204 100.99C23.8311 101.101 23.918 101.229 23.9811 101.375C24.0442 101.522 24.0757 101.678 24.0757 101.846C24.0757 102.014 24.0442 102.172 23.9811 102.319C23.918 102.467 23.8311 102.597 23.7204 102.709C23.6096 102.82 23.4804 102.907 23.3327 102.97C23.1865 103.033 23.0296 103.065 22.8619 103.065C22.6819 103.065 22.5265 103.023 22.3957 102.94C22.265 102.855 22.1604 102.745 22.0819 102.61V104.154ZM22.8573 101.008C22.7081 101.008 22.5773 101.046 22.465 101.122C22.3527 101.197 22.2658 101.298 22.2042 101.424C22.1442 101.55 22.1142 101.691 22.1142 101.846C22.1142 102 22.1442 102.141 22.2042 102.268C22.2658 102.396 22.3519 102.498 22.4627 102.573C22.575 102.648 22.7065 102.686 22.8573 102.686C23.0065 102.686 23.1434 102.649 23.2681 102.575C23.3927 102.5 23.4927 102.399 23.568 102.273C23.6434 102.145 23.6811 102.003 23.6811 101.846C23.6811 101.692 23.6442 101.552 23.5704 101.426C23.4965 101.298 23.3973 101.197 23.2727 101.122C23.1481 101.046 23.0096 101.008 22.8573 101.008ZM25.9896 104.154H25.6019V100.692H25.9896V101.087C26.0681 100.952 26.1727 100.842 26.3035 100.759C26.4342 100.675 26.5896 100.632 26.7696 100.632C26.9373 100.632 27.0942 100.664 27.2404 100.727C27.3881 100.79 27.5173 100.878 27.6281 100.99C27.7389 101.101 27.8258 101.229 27.8889 101.375C27.9519 101.522 27.9835 101.678 27.9835 101.846C27.9835 102.014 27.9519 102.172 27.8889 102.319C27.8258 102.467 27.7389 102.597 27.6281 102.709C27.5173 102.82 27.3881 102.907 27.2404 102.97C27.0942 103.033 26.9373 103.065 26.7696 103.065C26.5896 103.065 26.4342 103.023 26.3035 102.94C26.1727 102.855 26.0681 102.745 25.9896 102.61V104.154ZM26.765 101.008C26.6158 101.008 26.485 101.046 26.3727 101.122C26.2604 101.197 26.1735 101.298 26.1119 101.424C26.0519 101.55 26.0219 101.691 26.0219 101.846C26.0219 102 26.0519 102.141 26.1119 102.268C26.1735 102.396 26.2596 102.498 26.3704 102.573C26.4827 102.648 26.6142 102.686 26.765 102.686C26.9142 102.686 27.0512 102.649 27.1758 102.575C27.3004 102.5 27.4004 102.399 27.4758 102.273C27.5512 102.145 27.5889 102.003 27.5889 101.846C27.5889 101.692 27.5519 101.552 27.4781 101.426C27.4042 101.298 27.305 101.197 27.1804 101.122C27.0558 101.046 26.9173 101.008 26.765 101.008ZM30.2112 100.692H30.5989V103H30.2112L30.1951 102.61C30.1227 102.744 30.0227 102.852 29.8951 102.935C29.7689 103.018 29.6181 103.06 29.4428 103.06C29.2735 103.06 29.1151 103.028 28.9674 102.965C28.8197 102.901 28.6889 102.812 28.5751 102.7C28.4628 102.586 28.3751 102.455 28.312 102.308C28.2489 102.16 28.2174 102.001 28.2174 101.83C28.2174 101.665 28.2481 101.51 28.3097 101.364C28.3712 101.218 28.4566 101.09 28.5658 100.981C28.6766 100.87 28.8043 100.784 28.9489 100.722C29.0935 100.659 29.2489 100.628 29.4151 100.628C29.5966 100.628 29.7558 100.671 29.8927 100.757C30.0297 100.842 30.1404 100.952 30.2251 101.087L30.2112 100.692ZM29.4358 102.684C29.5881 102.684 29.7197 102.647 29.8304 102.573C29.9427 102.498 30.0289 102.396 30.0889 102.268C30.1504 102.141 30.1812 102 30.1812 101.846C30.1812 101.689 30.1504 101.548 30.0889 101.422C30.0274 101.294 29.9404 101.193 29.8281 101.119C29.7174 101.044 29.5866 101.006 29.4358 101.006C29.2835 101.006 29.1451 101.044 29.0204 101.119C28.8958 101.195 28.7966 101.296 28.7228 101.424C28.6504 101.55 28.6143 101.691 28.6143 101.846C28.6143 102.002 28.652 102.143 28.7274 102.271C28.8028 102.397 28.9028 102.498 29.0274 102.573C29.152 102.647 29.2881 102.684 29.4358 102.684ZM32.8174 100.692H33.2051V103.074C33.2051 103.226 33.172 103.368 33.1058 103.498C33.0412 103.631 32.9535 103.745 32.8428 103.842C32.732 103.941 32.6058 104.017 32.4643 104.071C32.3228 104.126 32.1751 104.154 32.0212 104.154C31.8612 104.154 31.7066 104.118 31.5574 104.045C31.4081 103.975 31.2774 103.879 31.1651 103.759C31.0543 103.641 30.9743 103.508 30.9251 103.36L31.2805 103.198C31.3097 103.305 31.362 103.4 31.4374 103.485C31.5143 103.571 31.6035 103.638 31.7051 103.688C31.8081 103.738 31.9135 103.764 32.0212 103.764C32.1228 103.764 32.2205 103.746 32.3143 103.711C32.4097 103.675 32.4951 103.626 32.5704 103.563C32.6474 103.502 32.7074 103.428 32.7504 103.344C32.7951 103.261 32.8174 103.171 32.8174 103.074V102.615C32.7389 102.747 32.6351 102.855 32.5058 102.938C32.3781 103.019 32.2289 103.06 32.0581 103.06C31.8951 103.06 31.742 103.028 31.5989 102.965C31.4558 102.902 31.3305 102.815 31.2228 102.705C31.1151 102.592 31.0305 102.463 30.9689 102.317C30.9074 102.171 30.8766 102.014 30.8766 101.846C30.8766 101.678 30.9074 101.522 30.9689 101.375C31.0305 101.228 31.1151 101.098 31.2228 100.988C31.3305 100.875 31.4558 100.788 31.5989 100.725C31.742 100.662 31.8951 100.63 32.0581 100.63C32.2289 100.63 32.3781 100.671 32.5058 100.752C32.6351 100.834 32.7389 100.942 32.8174 101.075V100.692ZM32.0605 102.684C32.2097 102.684 32.3389 102.645 32.4481 102.568C32.5589 102.492 32.6443 102.389 32.7043 102.262C32.7643 102.134 32.7943 101.995 32.7943 101.846C32.7943 101.692 32.7635 101.552 32.702 101.426C32.642 101.298 32.5566 101.197 32.4458 101.122C32.3366 101.045 32.2081 101.006 32.0605 101.006C31.9158 101.006 31.7835 101.044 31.6635 101.119C31.5435 101.195 31.4481 101.296 31.3774 101.424C31.3081 101.55 31.2735 101.691 31.2735 101.846C31.2735 102.002 31.3089 102.143 31.3797 102.271C31.452 102.397 31.5474 102.498 31.6658 102.573C31.7858 102.647 31.9174 102.684 32.0605 102.684ZM34.7438 103.06C34.5315 103.06 34.3376 103.005 34.1622 102.896C33.9884 102.787 33.8492 102.641 33.7446 102.458C33.6415 102.273 33.5899 102.069 33.5899 101.846C33.5899 101.677 33.6199 101.519 33.6799 101.373C33.7399 101.225 33.8222 101.096 33.9269 100.985C34.033 100.873 34.1561 100.785 34.2961 100.722C34.4361 100.659 34.5853 100.628 34.7438 100.628C34.9176 100.628 35.0769 100.663 35.2215 100.734C35.3676 100.803 35.4922 100.9 35.5953 101.025C35.6999 101.149 35.7776 101.294 35.8284 101.458C35.8807 101.623 35.8999 101.799 35.8861 101.987H34.003C34.0215 102.118 34.0646 102.235 34.1322 102.338C34.1999 102.439 34.2861 102.52 34.3907 102.58C34.4969 102.64 34.6145 102.671 34.7438 102.672C34.8822 102.672 35.0076 102.637 35.1199 102.566C35.2322 102.494 35.323 102.395 35.3922 102.271L35.7868 102.363C35.6945 102.568 35.5553 102.735 35.3692 102.866C35.183 102.995 34.9745 103.06 34.7438 103.06ZM33.9915 101.682H35.4961C35.4838 101.553 35.4422 101.435 35.3715 101.329C35.3007 101.222 35.2107 101.135 35.1015 101.071C34.9922 101.006 34.873 100.974 34.7438 100.974C34.6145 100.974 34.4961 101.005 34.3884 101.068C34.2807 101.132 34.1915 101.217 34.1207 101.325C34.0515 101.431 34.0084 101.55 33.9915 101.682Z" fill="#484848"/>
</g>
<path d="M-1 12C-1 4.8203 4.8203 -1 12 -1H480V1H12C5.92487 1 1 5.92487 1 12H-1ZM480 276H0H480ZM-1 276V12C-1 4.8203 4.8203 -1 12 -1V1C5.92487 1 1 5.92487 1 12V276H-1ZM480 0V276V0Z" fill="#161616" fill-opacity="0.08" mask="url(#path-1-inside-1_2445_1638)"/>
<defs>
<clipPath id="clip0_2445_1638">
<path d="M0 12C0 5.37258 5.37258 0 12 0H480V276H0V12Z" fill="white"/>
</clipPath>
<clipPath id="clip1_2445_1638">
<rect width="12" height="12" fill="white" transform="translate(9 28)"/>
</clipPath>
</defs>
</svg>
